<svg width="56" height="56" viewBox="0 0 56 56" fill="none" xmlns="http://www.w3.org/2000/svg">
<g clip-path="url(#clip0_47_3156)">
<rect width="56" height="56" rx="28" fill="white"/>
<rect x="8" y="13" width="39.5912" height="48" fill="#FF90C2"/>
<circle cx="3.50365" cy="3.50365" r="3.50365" transform="matrix(-1 0 0 1 30.7737 40.3511)" fill="white"/>
<path d="M27.146 40.3311C25.2676 40.4025 23.7663 41.9469 23.7661 43.8428C23.7661 45.292 24.6439 46.5353 25.896 47.0732C27.3938 46.4795 28.4536 45.0196 28.4536 43.3105C28.4536 42.1319 27.9499 41.0709 27.146 40.3311Z" fill="black"/>
<circle cx="3.50365" cy="3.50365" r="3.50365" transform="matrix(-1 0 0 1 21.3374 40.3516)" fill="white"/>
<path d="M17.686 40.3286C15.8075 40.4 14.3062 41.9443 14.3062 43.8403C14.3062 45.2896 15.1839 46.5329 16.436 47.0708C17.9338 46.4771 18.9935 45.0171 18.9937 43.3081C18.9937 42.1295 18.4899 41.0684 17.686 40.3286Z" fill="black"/>
</g>
<defs>
<clipPath id="clip0_47_3156">
<rect width="56" height="56" rx="28" fill="white"/>
</clipPath>
</defs>
</svg>
