<svg width="56" height="56" viewBox="0 0 56 56" fill="none" xmlns="http://www.w3.org/2000/svg">
<rect width="56" height="56" rx="28" fill="white"/>
<path d="M28 5L51 28.1429L28 51.2857L5 28.1429L28 5Z" fill="#09BD76"/>
<circle cx="2.85714" cy="2.85714" r="2.85714" transform="matrix(-0.143482 -0.989653 -0.989653 0.143482 35.0864 33.4292)" fill="white"/>
<path d="M34.6768 30.5022C34.4005 28.993 32.9793 27.9607 31.4482 28.1827C30.2786 28.3524 29.3784 29.2062 29.091 30.2799C29.7455 31.4188 31.0476 32.1029 32.4267 31.903C33.3767 31.7653 34.1737 31.2361 34.6768 30.5022Z" fill="black"/>
<circle cx="2.85714" cy="2.85714" r="2.85714" transform="matrix(0.0790334 -0.996872 -0.996872 -0.0790334 26.7649 34.0923)" fill="white"/>
<path d="M27.0167 31.1283C27.0812 29.5954 25.9236 28.2742 24.3814 28.1519C23.2032 28.0587 22.1363 28.6922 21.6185 29.6757C22.0048 30.9312 23.1234 31.8864 24.5125 31.9966C25.4694 32.0725 26.3637 31.7327 27.0167 31.1283Z" fill="black"/>
</svg>
