<svg width="56" height="56" viewBox="0 0 56 56" fill="none" xmlns="http://www.w3.org/2000/svg">
<rect width="56" height="56" rx="28" fill="white"/>
<path d="M23.8519 4L46.5363 20.5836L37.8716 47.4164H9.83209L1.16739 20.5836L23.8519 4Z" fill="#FDA490"/>
<circle cx="2.96296" cy="2.96296" r="2.96296" transform="matrix(-1 0 0 1 33.4814 16.4639)" fill="white"/>
<path d="M30.4138 16.4468C28.8251 16.507 27.5556 17.8131 27.5554 19.4165C27.5554 20.6424 28.2978 21.6942 29.3572 22.1489C30.6236 21.6467 31.5193 20.4115 31.5193 18.9663C31.5193 17.9697 31.0936 17.0724 30.4138 16.4468Z" fill="black"/>
<circle cx="2.96296" cy="2.96296" r="2.96296" transform="matrix(-1 0 0 1 25.5015 16.4639)" fill="white"/>
<path d="M22.4138 16.4443C20.825 16.5045 19.5555 17.8106 19.5554 19.4141C19.5554 20.64 20.2978 21.6918 21.3572 22.1465C22.6235 21.6442 23.5192 20.409 23.5193 18.9639C23.5193 17.9672 23.0935 17.07 22.4138 16.4443Z" fill="black"/>
</svg>
