<svg width="594" height="106" viewBox="0 0 594 106" fill="none" xmlns="http://www.w3.org/2000/svg">
<g clip-path="url(#clip0_49_3221)">
<path d="M63.9533 32.9433C64.3067 31.7067 64.8367 30.7056 65.5433 29.94C66.25 29.1156 67.0156 28.7033 67.84 28.7033C69.8422 28.7033 71.285 29.0861 72.1683 29.8517C73.0517 30.6172 73.4933 31.9422 73.4933 33.8267C73.4933 34.3567 73.0811 35.8583 72.2567 38.3317C70.4311 43.9261 68.4289 50.8456 66.25 59.09C65.72 60.9744 65.2783 62.6233 64.925 64.0367C64.6306 65.45 64.3656 66.6278 64.13 67.57C62.7167 73.6356 61.48 78.1994 60.42 81.2617C60.0667 82.145 59.4483 82.8517 58.565 83.3817C57.6817 83.8528 56.7394 84.0883 55.7383 84.0883C54.7372 84.0883 53.7361 83.8822 52.735 83.47C51.7928 82.9989 51.1156 82.4689 50.7033 81.88C48.8778 78.2878 46.6106 73.4 43.9017 67.2167C41.2517 60.9744 39.1906 55.5272 37.7183 50.875C34.0672 60.1206 30.7989 69.0422 27.9133 77.64C27.7367 78.17 27.5306 78.7589 27.295 79.4067C27.1183 79.9956 26.9122 80.6139 26.6767 81.2617C26.2644 82.145 25.6756 82.8517 24.91 83.3817C24.1444 83.8528 23.2906 84.0883 22.3483 84.0883C21.2883 84.0883 20.2578 83.8822 19.2567 83.47C18.2556 82.9989 17.5783 82.4689 17.225 81.88C16.4594 80.5844 15.635 78.5822 14.7517 75.8733C13.9272 73.1644 12.8083 69.3661 11.395 64.4783L9.18667 56.97C7.65556 52.0822 6.33056 47.0767 5.21167 41.9533C4.09278 36.83 3.53333 33.7678 3.53333 32.7667C3.53333 31.53 4.15167 30.5583 5.38833 29.8517C6.625 29.0861 7.86167 28.7033 9.09833 28.7033C9.805 28.7033 10.5411 28.9389 11.3067 29.41C12.0722 29.8222 12.5728 30.5583 12.8083 31.6183C14.8694 42.6306 17.9022 55.4094 21.9067 69.955C23.4378 66.3039 25.1161 61.8578 26.9417 56.6167C28.8261 51.3756 30.6222 46.2817 32.33 41.335L33.2133 38.685C33.4489 37.8017 34.0378 37.1244 34.98 36.6533C35.9811 36.1233 36.9822 35.8583 37.9833 35.8583C39.2789 35.8583 40.3389 36.1822 41.1633 36.83C41.9878 37.4778 42.5178 38.1844 42.7533 38.95C42.8122 39.1856 43.99 42.6894 46.2867 49.4617C48.5833 56.2339 51.3217 63.065 54.5017 69.955C55.6794 66.4806 57.0928 60.9156 58.7417 53.26L60.0667 47.43C61.6567 41.1878 62.9522 36.3589 63.9533 32.9433ZM84.7531 27.29C86.8142 27.4667 88.6103 28.0261 90.1414 28.9683C91.6725 29.8517 92.4381 31.2061 92.4381 33.0317C92.4381 34.3861 91.7903 35.4756 90.4947 36.3C89.2581 37.0656 87.7564 37.4483 85.9897 37.4483C84.282 37.4483 83.1042 37.0067 82.4564 36.1233C81.8086 35.24 81.4847 34.3272 81.4847 33.385C81.4847 31.6183 81.6614 30.1461 82.0147 28.9683C82.427 27.7906 83.3397 27.2311 84.7531 27.29ZM91.8197 66.4217V68.9833C91.8197 71.28 91.8786 73.4589 91.9964 75.52C92.1731 77.5222 92.3792 79.5539 92.6147 81.615C92.5558 82.2039 92.1142 82.8222 91.2897 83.47C90.4653 84.0589 89.7292 84.3533 89.0814 84.3533C87.9625 84.3533 86.8142 84.1472 85.6364 83.735C84.5175 83.2639 83.8403 82.7044 83.6047 82.0567C83.2514 80.1722 83.0747 78.4939 83.0747 77.0217C83.0747 72.1928 82.9275 66.775 82.6331 60.7683C82.3975 55.4683 82.2797 51.7583 82.2797 49.6383C82.2797 48.5783 82.8097 47.6656 83.8697 46.9C84.9297 46.1344 86.0486 45.7517 87.2264 45.7517C88.9342 45.7517 90.112 46.1344 90.7597 46.9C91.4664 47.6656 91.8197 48.8728 91.8197 50.5217V66.4217ZM112.742 70.3083C112.742 72.5461 113.066 74.2833 113.714 75.52C114.421 76.6978 115.304 77.2867 116.364 77.2867C116.953 77.2867 117.512 77.2572 118.042 77.1983C118.572 77.0806 119.102 77.0217 119.632 77.0217C120.221 77.0217 120.722 77.3161 121.134 77.905C121.605 78.4939 121.841 79.1417 121.841 79.8483C121.841 81.2617 121.163 82.3806 119.809 83.205C118.513 83.9706 116.747 84.3533 114.509 84.3533C112.919 84.3533 111.3 83.8822 109.651 82.94C108.061 81.9389 106.736 80.4078 105.676 78.3467C104.616 76.2267 104.086 73.6061 104.086 70.485C104.086 63.7717 104.203 58.0889 104.439 53.4367C104.733 47.9011 104.881 40.9228 104.881 32.5017C104.881 29.8517 105.028 27.9967 105.322 26.9367C105.676 26.1122 106.235 25.4939 107.001 25.0817C107.825 24.6106 108.679 24.375 109.562 24.375C110.446 24.375 111.211 24.5222 111.859 24.8167C112.566 25.1111 113.037 25.5822 113.272 26.23C113.508 26.9367 113.655 27.6433 113.714 28.35C113.832 28.9978 113.891 29.94 113.891 31.1767C113.891 33.5911 113.802 35.9172 113.626 38.155C113.508 40.8639 113.449 42.8367 113.449 44.0733C112.978 54.4378 112.742 63.1828 112.742 70.3083ZM164.435 83.5583C163.199 83.5583 162.021 83.205 160.902 82.4983C159.842 81.7328 158.9 80.9378 158.075 80.1133C157.251 79.23 156.691 78.6411 156.397 78.3467C155.16 80.1133 153.364 81.5561 151.009 82.675C148.653 83.7939 146.386 84.3533 144.207 84.3533C140.85 84.3533 137.876 83.6467 135.285 82.2333C132.694 80.82 130.692 78.9061 129.279 76.4917C127.865 74.0183 127.159 71.28 127.159 68.2767C127.159 65.45 127.482 62.7411 128.13 60.15C128.837 57.5 129.779 55.2917 130.957 53.525C132.547 51.2872 134.667 49.5206 137.317 48.225C140.026 46.9294 142.705 46.2817 145.355 46.2817C146.945 46.2817 148.447 46.5761 149.86 47.165C151.274 47.7539 152.51 48.49 153.57 49.3733C153.57 45.4867 153.541 43.0428 153.482 42.0417V40.0983C153.482 34.5628 153.835 30.5289 154.542 27.9967C155.19 25.5233 156.78 24.2867 159.312 24.2867C160.666 24.2867 161.667 24.5811 162.315 25.17C162.963 25.7589 163.287 26.8778 163.287 28.5267C163.287 29.1156 163.14 30.735 162.845 33.385C162.197 39.9806 161.874 46.5761 161.874 53.1717C161.874 58.7072 161.962 62.8294 162.139 65.5383C162.374 68.1883 162.816 70.3083 163.464 71.8983C164.17 73.4883 165.26 74.9017 166.732 76.1383C167.615 76.845 168.234 77.4339 168.587 77.905C168.999 78.3761 169.205 78.9944 169.205 79.76C169.205 80.7022 168.734 81.5856 167.792 82.41C166.85 83.1756 165.731 83.5583 164.435 83.5583ZM143.942 77.1983C147.063 77.1983 149.36 76.2267 150.832 74.2833C152.363 72.2811 153.129 69.7489 153.129 66.6867L153.04 61.74C152.981 60.7978 152.952 59.5317 152.952 57.9417C150.773 55.3506 148.417 54.055 145.885 54.055C144.177 54.055 142.558 54.4967 141.027 55.38C139.555 56.2633 138.347 57.5589 137.405 59.2667C136.404 61.21 135.904 64.1544 135.904 68.1C135.904 70.8089 136.699 73.0172 138.289 74.725C139.879 76.3739 141.763 77.1983 143.942 77.1983ZM206.849 54.4967C206.849 55.7333 206.584 56.6756 206.054 57.3233C205.583 57.9711 204.788 58.295 203.669 58.295C202.845 58.295 202.138 58.0889 201.549 57.6767C201.019 57.2644 200.312 56.5578 199.429 55.5567C198.722 54.7911 197.898 54.1728 196.956 53.7017C196.072 53.2306 195.277 52.995 194.571 52.995C190.978 52.995 188.387 53.7606 186.797 55.2917C185.796 56.3517 184.972 57.765 184.324 59.5317C183.676 61.2394 183.352 63.0061 183.352 64.8317C183.352 67.4817 183.735 69.6017 184.501 71.1917C185.266 72.7817 186.621 74.1361 188.564 75.255C189.271 75.6672 190.272 76.0206 191.567 76.315C192.863 76.5506 193.923 76.6683 194.747 76.6683C195.866 76.6683 197.044 76.3739 198.281 75.785C199.517 75.1372 200.577 74.3128 201.461 73.3117C202.58 72.0161 203.934 71.3683 205.524 71.3683C206.172 71.3683 206.908 71.6922 207.732 72.34C208.616 72.9878 209.057 73.7533 209.057 74.6367C209.057 76.4033 208.203 78.0522 206.496 79.5833C204.847 81.0556 202.815 82.2333 200.401 83.1167C197.986 83.9411 195.748 84.3533 193.687 84.3533C190.213 84.3533 186.974 83.5583 183.971 81.9683C181.026 80.3783 178.671 78.1994 176.904 75.4317C175.137 72.605 174.254 69.425 174.254 65.8917C174.254 62.8294 174.813 59.8556 175.932 56.97C177.11 54.0844 178.671 51.7289 180.614 49.9033C182.204 48.4311 184.177 47.3417 186.532 46.635C188.888 45.9283 191.361 45.575 193.952 45.575C195.778 45.575 197.662 45.9283 199.606 46.635C201.549 47.3417 203.11 48.2839 204.287 49.4617C205.995 51.1694 206.849 52.8478 206.849 54.4967ZM250.11 84.3533C248.108 84.3533 246.577 84.0589 245.517 83.47C244.457 82.8222 243.309 81.6444 242.072 79.9367C240.541 81.2911 238.244 82.3806 235.182 83.205C232.179 84.0294 229.588 84.4417 227.409 84.4417C223.816 84.4417 220.901 83.47 218.664 81.5267C216.485 79.5244 215.395 76.6094 215.395 72.7817C215.395 71.1328 215.837 69.6311 216.72 68.2767C217.663 66.8633 218.87 65.6267 220.342 64.5667C221.991 63.4478 223.934 62.5644 226.172 61.9167C228.469 61.2689 230.559 60.945 232.444 60.945C235.624 60.945 238.45 61.2394 240.924 61.8283V61.74C240.924 58.56 240.129 56.3811 238.539 55.2033C237.008 53.9667 234.534 53.3483 231.119 53.3483C228.94 53.3483 227.055 54.32 225.465 56.2633C224.876 57.0289 223.64 57.4117 221.755 57.4117C220.813 57.4117 220.106 57.0289 219.635 56.2633C219.223 55.4389 219.017 54.6144 219.017 53.79C219.017 52.0822 219.724 50.61 221.137 49.3733C222.609 48.1367 224.376 47.2239 226.437 46.635C228.498 45.9872 230.412 45.6633 232.179 45.6633C233.886 45.6633 235.918 46.0167 238.274 46.7233C240.629 47.43 242.543 48.3722 244.015 49.55C245.782 51.0811 247.136 52.8772 248.079 54.9383C249.08 56.9406 249.58 59.1489 249.58 61.5633C249.58 62.3289 249.521 63.4772 249.404 65.0083C249.286 66.775 249.227 68.2178 249.227 69.3367C249.227 69.8667 249.168 70.5439 249.05 71.3683C248.933 72.4283 248.874 73.3117 248.874 74.0183C248.874 74.7839 249.109 75.52 249.58 76.2267C250.051 76.9333 250.699 77.5222 251.524 77.9933C252.289 78.4056 252.79 78.8472 253.025 79.3183C253.261 79.7894 253.379 80.3194 253.379 80.9083C253.379 81.4972 252.996 82.2333 252.23 83.1167C251.524 83.9411 250.817 84.3533 250.11 84.3533ZM232.444 67.4817C230.147 67.4817 228.115 67.9233 226.349 68.8067C224.582 69.69 223.699 71.2506 223.699 73.4883C223.699 74.6072 224.081 75.5494 224.847 76.315C225.671 77.0806 226.555 77.4633 227.497 77.4633C230.029 77.4633 232.149 77.1983 233.857 76.6683C235.565 76.1383 237.626 75.1667 240.04 73.7533C240.335 72.8111 240.511 71.4861 240.57 69.7783C240.57 69.1306 240.6 68.63 240.659 68.2767C237.479 67.7467 234.74 67.4817 232.444 67.4817ZM273.094 80.4667C273.094 81.4678 272.711 82.3511 271.945 83.1167C271.18 83.8822 270.237 84.265 269.119 84.265C267.352 84.265 266.056 83.9411 265.232 83.2933C264.407 82.5867 263.995 81.3206 263.995 79.495C263.995 77.3161 263.936 74.46 263.819 70.9267C263.701 67.9822 263.642 65.5089 263.642 63.5067C263.642 62.5644 263.701 61.3278 263.819 59.7967C263.936 58.3833 263.995 57.3233 263.995 56.6167C263.819 55.4978 263.377 54.585 262.67 53.8783C261.964 53.1128 261.051 52.73 259.932 52.73C259.402 52.73 258.96 52.4944 258.607 52.0233C258.254 51.4933 258.077 50.9633 258.077 50.4333C258.077 49.0789 258.607 48.0483 259.667 47.3417C260.786 46.635 262.111 46.2817 263.642 46.2817C266.822 46.2817 269.03 48.1661 270.267 51.935C271.798 50.1683 273.535 48.755 275.479 47.695C277.481 46.5761 279.395 46.0167 281.22 46.0167C283.399 46.0167 285.372 46.6056 287.139 47.7833C288.964 48.9611 289.877 50.5511 289.877 52.5533C289.877 53.6722 289.376 54.8206 288.375 55.9983C287.433 57.1761 286.461 57.765 285.46 57.765C284.93 57.765 284.459 57.6472 284.047 57.4117C283.694 57.1172 283.252 56.705 282.722 56.175C282.133 55.5861 281.632 55.1739 281.22 54.9383C280.808 54.6439 280.337 54.4967 279.807 54.4967C278.865 54.4967 277.981 54.6439 277.157 54.9383C276.332 55.2328 275.773 55.5861 275.479 55.9983C274.536 57.4706 273.83 58.7956 273.359 59.9733C272.946 61.1511 272.74 62.4172 272.74 63.7717C272.74 64.7728 272.711 65.5678 272.652 66.1567L272.564 71.1917C272.564 71.9572 272.593 72.8111 272.652 73.7533C272.711 74.6956 272.77 75.4022 272.829 75.8733C273.005 77.4633 273.094 78.9944 273.094 80.4667ZM331.699 83.5583C330.463 83.5583 329.285 83.205 328.166 82.4983C327.106 81.7328 326.164 80.9378 325.339 80.1133C324.515 79.23 323.955 78.6411 323.661 78.3467C322.424 80.1133 320.628 81.5561 318.273 82.675C315.917 83.7939 313.65 84.3533 311.471 84.3533C308.114 84.3533 305.14 83.6467 302.549 82.2333C299.958 80.82 297.956 78.9061 296.543 76.4917C295.129 74.0183 294.423 71.28 294.423 68.2767C294.423 65.45 294.746 62.7411 295.394 60.15C296.101 57.5 297.043 55.2917 298.221 53.525C299.811 51.2872 301.931 49.5206 304.581 48.225C307.29 46.9294 309.969 46.2817 312.619 46.2817C314.209 46.2817 315.711 46.5761 317.124 47.165C318.538 47.7539 319.774 48.49 320.834 49.3733C320.834 45.4867 320.805 43.0428 320.746 42.0417V40.0983C320.746 34.5628 321.099 30.5289 321.806 27.9967C322.454 25.5233 324.044 24.2867 326.576 24.2867C327.93 24.2867 328.931 24.5811 329.579 25.17C330.227 25.7589 330.551 26.8778 330.551 28.5267C330.551 29.1156 330.404 30.735 330.109 33.385C329.461 39.9806 329.138 46.5761 329.138 53.1717C329.138 58.7072 329.226 62.8294 329.403 65.5383C329.638 68.1883 330.08 70.3083 330.728 71.8983C331.434 73.4883 332.524 74.9017 333.996 76.1383C334.879 76.845 335.498 77.4339 335.851 77.905C336.263 78.3761 336.469 78.9944 336.469 79.76C336.469 80.7022 335.998 81.5856 335.056 82.41C334.114 83.1756 332.995 83.5583 331.699 83.5583ZM311.206 77.1983C314.327 77.1983 316.624 76.2267 318.096 74.2833C319.627 72.2811 320.393 69.7489 320.393 66.6867L320.304 61.74C320.245 60.7978 320.216 59.5317 320.216 57.9417C318.037 55.3506 315.681 54.055 313.149 54.055C311.441 54.055 309.822 54.4967 308.291 55.38C306.819 56.2633 305.611 57.5589 304.669 59.2667C303.668 61.21 303.168 64.1544 303.168 68.1C303.168 70.8089 303.963 73.0172 305.553 74.725C307.143 76.3739 309.027 77.1983 311.206 77.1983ZM358.532 32.5017C358.532 29.9694 360.387 28.7033 364.097 28.7033C365.687 28.7033 368.72 28.7622 373.195 28.88C378.142 29.1156 381.881 29.2333 384.414 29.2333C386.475 29.2333 388.977 29.1156 391.922 28.88C393.924 28.7622 395.19 28.7033 395.72 28.7033C398.959 28.8211 401.697 29.41 403.935 30.47C404.583 30.7644 405.113 31.1178 405.525 31.53C405.937 31.9422 406.144 32.6194 406.144 33.5617C406.144 34.8572 405.731 35.9761 404.907 36.9183C404.082 37.8017 403.081 38.2433 401.904 38.2433C400.608 38.2433 398.724 38.0667 396.25 37.7133C394.071 37.3011 392.157 37.095 390.509 37.095C388.919 37.095 387.711 37.1244 386.887 37.1833C386.71 39.1267 386.622 43.7789 386.622 51.14C386.622 59.9144 386.887 68.8067 387.417 77.8167L387.594 80.3783C387.594 82.7928 386.21 84 383.442 84C381.263 84 379.791 83.4994 379.025 82.4983C378.26 81.4383 377.877 79.8483 377.877 77.7283C377.877 73.5472 377.759 68.3356 377.524 62.0933C377.288 56.9111 377.17 53.2306 377.17 51.0517C377.17 49.5794 377.347 45.0744 377.7 37.5367L367.365 37.625C364.067 37.625 361.771 37.3306 360.475 36.7417C359.18 36.0939 358.532 34.6806 358.532 32.5017ZM424.035 80.4667C423.917 81.4678 423.505 82.3511 422.798 83.1167C422.092 83.8822 421.179 84.265 420.06 84.265C418.293 84.265 416.998 83.9411 416.173 83.2933C415.349 82.5867 414.937 81.3206 414.937 79.495C414.937 77.0217 415.084 74.3128 415.378 71.3683C415.614 67.9528 415.732 65.3322 415.732 63.5067C415.732 62.5644 415.673 61.3867 415.555 59.9733C415.437 58.6778 415.378 57.7061 415.378 57.0583C415.202 56.0572 414.79 55.2622 414.142 54.6733C413.553 54.0844 412.611 53.5839 411.315 53.1717C410.785 52.9361 410.343 52.5533 409.99 52.0233C409.637 51.4344 409.46 50.9044 409.46 50.4333C409.46 49.0789 409.99 48.0483 411.05 47.3417C412.11 46.635 413.406 46.2817 414.937 46.2817C416.645 46.2817 418.117 46.8706 419.353 48.0483C420.59 49.2261 421.532 50.6983 422.18 52.465C423.535 50.5217 425.183 48.9611 427.127 47.7833C429.129 46.6056 431.072 46.0167 432.957 46.0167C435.371 46.0167 437.403 46.4289 439.052 47.2533C440.76 48.0189 441.613 49.3733 441.613 51.3167C441.613 52.4356 441.113 53.6133 440.112 54.85C439.17 56.0278 438.198 56.6167 437.197 56.6167C436.431 56.6167 435.518 56.2633 434.458 55.5567C434.046 55.2622 433.575 55.0267 433.045 54.85C432.574 54.6144 432.073 54.4967 431.543 54.4967C430.601 54.4967 429.718 54.6439 428.893 54.9383C428.069 55.2328 427.51 55.5861 427.215 55.9983C426.273 57.4706 425.566 58.7956 425.095 59.9733C424.683 61.1511 424.477 62.4172 424.477 63.7717C424.477 64.7728 424.447 65.5678 424.388 66.1567L424.3 71.1917L424.388 74.5483C424.388 77.0217 424.271 78.9944 424.035 80.4667ZM451.194 27.29C453.255 27.4667 455.022 28.0261 456.494 28.9683C458.025 29.8517 458.791 31.2061 458.791 33.0317C458.791 34.3861 458.173 35.4756 456.936 36.3C455.699 37.0656 454.168 37.4483 452.343 37.4483C450.635 37.4483 449.457 37.0067 448.809 36.1233C448.161 35.24 447.838 34.3272 447.838 33.385C447.838 31.6772 448.044 30.2344 448.456 29.0567C448.868 27.82 449.781 27.2311 451.194 27.29ZM449.428 63.7717V61.21C449.428 58.2656 449.28 55.5861 448.986 53.1717C448.75 50.6983 448.603 49.1672 448.544 48.5783C448.603 47.9306 449.045 47.3122 449.869 46.7233C450.694 46.1344 451.43 45.84 452.078 45.84C453.196 45.84 454.315 46.0756 455.434 46.5467C456.612 46.9589 457.348 47.4889 457.643 48.1367C457.937 50.3156 458.084 51.9939 458.084 53.1717C458.084 55.7628 458.202 60.0028 458.438 65.8917L458.526 69.3367L458.703 72.6933C458.761 73.6356 458.82 74.7544 458.879 76.05C458.938 77.3456 458.968 78.8178 458.968 80.4667C458.968 81.5856 458.408 82.5278 457.289 83.2933C456.229 84.0589 455.11 84.4417 453.933 84.4417C452.225 84.4417 451.018 84.0589 450.311 83.2933C449.663 82.5278 449.339 81.3206 449.339 79.6717L449.428 63.7717ZM489.788 61.2983C489.964 60.8272 490.583 59.1194 491.643 56.175C492.761 53.2306 493.792 50.9928 494.734 49.4617C496.265 47.0472 497.62 45.84 498.798 45.84C500.446 45.84 501.713 46.1639 502.596 46.8117C503.479 47.4006 503.921 48.2544 503.921 49.3733C503.921 49.9033 503.685 50.6394 503.214 51.5817C502.802 52.5239 502.566 53.0833 502.508 53.26C500.152 58.4422 498.032 64.0072 496.148 69.955L494.293 76.845C493.586 79.0828 492.379 80.9083 490.671 82.3217C488.963 83.6761 486.961 84.3533 484.664 84.3533C482.603 84.3533 480.689 83.4111 478.923 81.5267C477.863 79.8778 476.744 77.7872 475.566 75.255C474.447 72.7228 473.475 70.2494 472.651 67.835L469.559 58.56C468.911 56.7344 468.381 55.1739 467.969 53.8783C467.616 52.5828 467.439 51.405 467.439 50.345C467.38 49.1083 467.734 48.1072 468.499 47.3417C469.265 46.5761 470.325 46.1933 471.679 46.1933C473.21 46.1933 474.3 46.5172 474.948 47.165C475.595 47.7539 476.184 48.6961 476.714 49.9917C476.95 51.3461 477.598 54.1139 478.658 58.295L479.276 60.7683C479.806 62.7706 480.483 64.8022 481.308 66.8633C482.132 68.9244 482.956 70.8972 483.781 72.7817C483.663 72.4872 484.075 73.4589 485.018 75.6967C485.606 73.9889 486.284 71.8983 487.049 69.425L489.788 61.2983ZM514.688 27.29C516.749 27.4667 518.545 28.0261 520.076 28.9683C521.607 29.8517 522.373 31.2061 522.373 33.0317C522.373 34.3861 521.725 35.4756 520.43 36.3C519.193 37.0656 517.691 37.4483 515.925 37.4483C514.217 37.4483 513.039 37.0067 512.391 36.1233C511.744 35.24 511.42 34.3272 511.42 33.385C511.42 31.6183 511.596 30.1461 511.95 28.9683C512.362 27.7906 513.275 27.2311 514.688 27.29ZM521.755 66.4217V68.9833C521.755 71.28 521.814 73.4589 521.931 75.52C522.108 77.5222 522.314 79.5539 522.55 81.615C522.491 82.2039 522.049 82.8222 521.225 83.47C520.4 84.0589 519.664 84.3533 519.016 84.3533C517.897 84.3533 516.749 84.1472 515.571 83.735C514.452 83.2639 513.775 82.7044 513.54 82.0567C513.186 80.1722 513.01 78.4939 513.01 77.0217C513.01 72.1928 512.862 66.775 512.568 60.7683C512.332 55.4683 512.215 51.7583 512.215 49.6383C512.215 48.5783 512.745 47.6656 513.805 46.9C514.865 46.1344 515.984 45.7517 517.161 45.7517C518.869 45.7517 520.047 46.1344 520.695 46.9C521.401 47.6656 521.755 48.8728 521.755 50.5217V66.4217ZM566.351 84.3533C564.348 84.3533 562.817 84.0589 561.757 83.47C560.697 82.8222 559.549 81.6444 558.312 79.9367C556.781 81.2911 554.484 82.3806 551.422 83.205C548.419 84.0294 545.828 84.4417 543.649 84.4417C540.057 84.4417 537.142 83.47 534.904 81.5267C532.725 79.5244 531.636 76.6094 531.636 72.7817C531.636 71.1328 532.077 69.6311 532.961 68.2767C533.903 66.8633 535.11 65.6267 536.582 64.5667C538.231 63.4478 540.174 62.5644 542.412 61.9167C544.709 61.2689 546.799 60.945 548.684 60.945C551.864 60.945 554.691 61.2394 557.164 61.8283V61.74C557.164 58.56 556.369 56.3811 554.779 55.2033C553.248 53.9667 550.774 53.3483 547.359 53.3483C545.18 53.3483 543.296 54.32 541.706 56.2633C541.117 57.0289 539.88 57.4117 537.996 57.4117C537.053 57.4117 536.347 57.0289 535.876 56.2633C535.463 55.4389 535.257 54.6144 535.257 53.79C535.257 52.0822 535.964 50.61 537.377 49.3733C538.849 48.1367 540.616 47.2239 542.677 46.635C544.738 45.9872 546.652 45.6633 548.419 45.6633C550.127 45.6633 552.158 46.0167 554.514 46.7233C556.869 47.43 558.783 48.3722 560.256 49.55C562.022 51.0811 563.377 52.8772 564.319 54.9383C565.32 56.9406 565.821 59.1489 565.821 61.5633C565.821 62.3289 565.762 63.4772 565.644 65.0083C565.526 66.775 565.467 68.2178 565.467 69.3367C565.467 69.8667 565.408 70.5439 565.291 71.3683C565.173 72.4283 565.114 73.3117 565.114 74.0183C565.114 74.7839 565.349 75.52 565.821 76.2267C566.292 76.9333 566.939 77.5222 567.764 77.9933C568.529 78.4056 569.03 78.8472 569.266 79.3183C569.501 79.7894 569.619 80.3194 569.619 80.9083C569.619 81.4972 569.236 82.2333 568.471 83.1167C567.764 83.9411 567.057 84.3533 566.351 84.3533ZM548.684 67.4817C546.387 67.4817 544.356 67.9233 542.589 68.8067C540.822 69.69 539.939 71.2506 539.939 73.4883C539.939 74.6072 540.322 75.5494 541.087 76.315C541.912 77.0806 542.795 77.4633 543.737 77.4633C546.269 77.4633 548.389 77.1983 550.097 76.6683C551.805 76.1383 553.866 75.1667 556.281 73.7533C556.575 72.8111 556.752 71.4861 556.811 69.7783C556.811 69.1306 556.84 68.63 556.899 68.2767C553.719 67.7467 550.981 67.4817 548.684 67.4817ZM587.302 32.7667C587.302 35.9467 587.125 40.5989 586.772 46.7233C586.419 52.6122 586.242 57.1172 586.242 60.2383C586.242 61.0628 586.301 62.7706 586.419 65.3617C586.36 66.3628 586.007 67.1283 585.359 67.6583C584.711 68.1294 583.945 68.365 583.062 68.365C582.12 68.365 581.266 68.1294 580.5 67.6583C579.735 67.1872 579.264 66.5689 579.087 65.8033C578.38 60.9744 578.027 55.2033 578.027 48.49L578.115 34.71C578.115 32.5311 578.38 30.7644 578.91 29.41C579.499 27.9967 580.736 27.29 582.62 27.29C584.21 27.29 585.388 27.82 586.154 28.88C586.919 29.8811 587.302 31.1767 587.302 32.7667ZM582.62 72.9583C586.625 72.9583 588.627 74.46 588.627 77.4633C588.627 78.9944 588.127 80.4078 587.125 81.7033C586.183 82.94 584.976 83.5583 583.504 83.5583C581.737 83.5583 580.294 83.0283 579.175 81.9683C578.057 80.8494 577.497 79.5539 577.497 78.0817C577.497 76.7861 577.968 75.6083 578.91 74.5483C579.912 73.4883 581.148 72.9583 582.62 72.9583Z" fill="white"/>
<path d="M416.734 22.4651C417.977 28.9266 413.747 35.1723 407.286 36.4153L406.499 36.5666C399.991 37.8186 395.73 44.1094 396.982 50.6175L401.267 72.8921C402.497 79.2834 398.312 85.4613 391.921 86.6909C385.53 87.9204 379.352 83.7359 378.122 77.3446L373.837 55.0699C372.585 48.5618 366.294 44.3009 359.786 45.5529L358.214 45.8554C351.752 47.0985 345.506 42.8681 344.263 36.4066C343.02 29.9451 347.251 23.6994 353.712 22.4564L402.784 13.0162C409.246 11.7732 415.491 16.0036 416.734 22.4651Z" fill="#F6D705"/>
<path d="M378.122 77.3446L375.176 77.9113L378.122 77.3446ZM396.982 50.6175L394.036 51.1842L396.982 50.6175ZM407.286 36.4153L406.719 33.4694L405.932 33.6206L406.499 36.5666L407.066 39.5126L407.852 39.3613L407.286 36.4153ZM396.982 50.6175L394.036 51.1842L398.321 73.4589L401.267 72.8921L404.213 72.3254L399.928 50.0507L396.982 50.6175ZM378.122 77.3446L381.068 76.7779L376.783 54.5032L373.837 55.0699L370.891 55.6366L375.176 77.9113L378.122 77.3446ZM359.786 45.5529L359.22 42.6069L357.647 42.9095L358.214 45.8554L358.78 48.8014L360.353 48.4989L359.786 45.5529ZM353.712 22.4564L354.279 25.4023L403.351 15.9622L402.784 13.0162L402.217 10.0703L353.146 19.5104L353.712 22.4564ZM402.784 13.0162L403.351 15.9622C408.185 15.0322 412.858 18.1974 413.788 23.0318L416.734 22.4651L419.68 21.8984C418.124 13.8099 410.306 8.51425 402.217 10.0703L402.784 13.0162ZM344.263 36.4066L347.209 35.8398C346.279 31.0054 349.445 26.3324 354.279 25.4023L353.712 22.4564L353.146 19.5104C345.057 21.0664 339.761 28.8848 341.317 36.9733L344.263 36.4066ZM358.214 45.8554L357.647 42.9095C352.812 43.8395 348.139 40.6743 347.209 35.8398L344.263 36.4066L341.317 36.9733C342.873 45.0618 350.692 50.3574 358.78 48.8014L358.214 45.8554ZM373.837 55.0699L376.783 54.5032C375.218 46.3681 367.355 41.0419 359.22 42.6069L359.786 45.5529L360.353 48.4989C365.234 47.5599 369.952 50.7556 370.891 55.6366L373.837 55.0699ZM391.921 86.6909L391.354 83.7449C386.59 84.6614 381.985 81.5422 381.068 76.7779L378.122 77.3446L375.176 77.9113C376.719 85.9297 384.469 91.1793 392.488 89.6368L391.921 86.6909ZM401.267 72.8921L398.321 73.4589C399.238 78.2232 396.118 82.8284 391.354 83.7449L391.921 86.6909L392.488 89.6368C400.506 88.0943 405.756 80.3437 404.213 72.3254L401.267 72.8921ZM406.499 36.5666L405.932 33.6206C397.797 35.1856 392.471 43.0491 394.036 51.1842L396.982 50.6175L399.928 50.0507C398.989 45.1697 402.185 40.4516 407.066 39.5126L406.499 36.5666ZM407.286 36.4153L407.852 39.3613C415.941 37.8053 421.236 29.9869 419.68 21.8984L416.734 22.4651L413.788 23.0318C414.718 27.8663 411.553 32.5393 406.719 33.4694L407.286 36.4153Z" fill="white"/>
</g>
<defs>
<clipPath id="clip0_49_3221">
<rect width="594" height="106" fill="white"/>
</clipPath>
</defs>
</svg>
