<svg width="829" height="520" viewBox="0 0 829 520" fill="none" xmlns="http://www.w3.org/2000/svg">
<path d="M157.014 80.685C157.882 77.6497 159.182 75.1926 160.917 73.3136C162.651 71.29 164.53 70.2783 166.554 70.2783C171.468 70.2783 175.009 71.2178 177.178 73.0968C179.346 74.9758 180.43 78.2279 180.43 82.8531C180.43 84.154 179.418 87.8397 177.394 93.9103C172.914 107.641 167.999 124.625 162.651 144.86C161.351 149.485 160.267 153.532 159.399 157.001C158.677 160.47 158.026 163.361 157.448 165.674C153.979 180.561 150.944 191.763 148.342 199.279C147.475 201.447 145.957 203.181 143.789 204.482C141.621 205.639 139.308 206.217 136.851 206.217C134.394 206.217 131.937 205.711 129.48 204.699C127.167 203.543 125.505 202.242 124.493 200.797C120.013 191.98 114.448 179.983 107.799 164.807C101.295 149.485 96.2359 136.116 92.6224 124.697C83.661 147.39 75.6392 169.287 68.5568 190.39C68.1231 191.691 67.6173 193.136 67.0391 194.726C66.6055 196.171 66.0996 197.689 65.5215 199.279C64.5097 201.447 63.0643 203.181 61.1853 204.482C59.3063 205.639 57.2105 206.217 54.8979 206.217C52.2962 206.217 49.7667 205.711 47.3096 204.699C44.8524 203.543 43.1902 202.242 42.323 200.797C40.444 197.617 38.4205 192.702 36.2524 186.054C34.2288 179.405 31.4826 170.082 28.0137 158.085L22.5935 139.657C18.8355 127.66 15.5834 115.374 12.8371 102.799C10.0909 90.2246 8.71779 82.7086 8.71779 80.2514C8.71779 77.2161 10.2354 74.8312 13.2708 73.0968C16.3061 71.2178 19.3414 70.2783 22.3767 70.2783C24.1111 70.2783 25.9179 70.8564 27.7969 72.0127C29.6759 73.0245 30.9045 74.8312 31.4826 77.4329C36.5415 104.462 43.9852 135.827 53.8138 171.528C57.5718 162.566 61.6912 151.653 66.1719 138.79C70.7971 125.926 75.2055 113.423 79.3972 101.282L81.5652 94.7776C82.1434 92.6095 83.5888 90.9473 85.9014 89.791C88.3586 88.4901 90.8157 87.8397 93.2729 87.8397C96.4527 87.8397 99.0544 88.6347 101.078 90.2246C103.101 91.8145 104.402 93.549 104.98 95.428C105.125 96.0061 108.016 104.606 113.653 121.228C119.29 137.85 126.011 154.617 133.816 171.528C136.707 163 140.176 149.341 144.223 130.551L147.475 116.242C151.377 100.92 154.557 89.0683 157.014 80.685ZM208.066 66.8093C213.125 67.2429 217.533 68.6161 221.291 70.9287C225.049 73.0968 226.928 76.4212 226.928 80.9019C226.928 84.2262 225.338 86.9002 222.158 88.9237C219.123 90.8027 215.437 91.7422 211.101 91.7422C206.91 91.7422 204.019 90.6582 202.429 88.4901C200.839 86.322 200.044 84.0817 200.044 81.7691C200.044 77.4329 200.478 73.8195 201.345 70.9287C202.357 68.0379 204.597 66.6648 208.066 66.8093ZM225.41 162.855V169.143C225.41 174.78 225.555 180.128 225.844 185.186C226.278 190.101 226.784 195.087 227.362 200.146C227.217 201.592 226.133 203.109 224.11 204.699C222.086 206.145 220.279 206.867 218.689 206.867C215.943 206.867 213.125 206.361 210.234 205.35C207.488 204.193 205.826 202.82 205.247 201.23C204.38 196.605 203.947 192.486 203.947 188.872C203.947 177.02 203.585 163.722 202.862 148.98C202.284 135.971 201.995 126.865 201.995 121.662C201.995 119.06 203.296 116.82 205.898 114.941C208.499 113.062 211.246 112.122 214.136 112.122C218.328 112.122 221.219 113.062 222.809 114.941C224.543 116.82 225.41 119.783 225.41 123.83V162.855ZM276.763 172.395C276.763 177.887 277.558 182.151 279.148 185.186C280.883 188.077 283.051 189.523 285.653 189.523C287.098 189.523 288.471 189.45 289.772 189.306C291.073 189.017 292.374 188.872 293.674 188.872C295.12 188.872 296.348 189.595 297.36 191.04C298.517 192.486 299.095 194.076 299.095 195.81C299.095 199.279 297.432 202.025 294.108 204.049C290.928 205.928 286.592 206.867 281.1 206.867C277.197 206.867 273.222 205.711 269.175 203.398C265.273 200.941 262.021 197.183 259.419 192.124C256.817 186.921 255.516 180.489 255.516 172.828C255.516 156.351 255.805 142.403 256.384 130.984C257.106 117.398 257.468 100.27 257.468 79.601C257.468 73.0968 257.829 68.5438 258.552 65.9421C259.419 63.9186 260.792 62.4009 262.671 61.3891C264.695 60.2328 266.79 59.6547 268.958 59.6547C271.126 59.6547 273.005 60.016 274.595 60.7387C276.33 61.4614 277.486 62.6177 278.064 64.2076C278.642 65.9421 279.004 67.6766 279.148 69.411C279.437 71.001 279.582 73.3136 279.582 76.3489C279.582 82.275 279.365 87.9842 278.932 93.4767C278.642 100.125 278.498 104.968 278.498 108.003C277.342 133.442 276.763 154.906 276.763 172.395ZM403.64 204.916C400.605 204.916 397.714 204.049 394.968 202.314C392.366 200.435 390.053 198.484 388.03 196.46C386.006 194.292 384.633 192.847 383.911 192.124C380.875 196.46 376.467 200.002 370.685 202.748C364.904 205.494 359.339 206.867 353.991 206.867C345.752 206.867 338.453 205.133 332.094 201.664C325.734 198.195 320.82 193.497 317.351 187.571C313.882 181.501 312.147 174.78 312.147 167.408C312.147 160.47 312.942 153.822 314.532 147.462C316.267 140.958 318.579 135.537 321.47 131.201C325.372 125.709 330.576 121.373 337.08 118.193C343.729 115.013 350.305 113.423 356.81 113.423C360.712 113.423 364.398 114.146 367.867 115.591C371.336 117.036 374.371 118.843 376.973 121.011C376.973 111.472 376.9 105.473 376.756 103.016V98.2465C376.756 84.6599 377.623 74.759 379.358 68.5438C380.948 62.4732 384.85 59.4379 391.065 59.4379C394.39 59.4379 396.847 60.1606 398.437 61.606C400.027 63.0513 400.822 65.7976 400.822 69.8446C400.822 71.29 400.46 75.2648 399.738 81.7691C398.148 97.9574 397.353 114.146 397.353 130.334C397.353 143.921 397.57 154.038 398.003 160.687C398.581 167.191 399.665 172.395 401.255 176.297C402.99 180.2 405.664 183.669 409.277 186.704C411.445 188.439 412.963 189.884 413.83 191.04C414.842 192.197 415.348 193.714 415.348 195.593C415.348 197.906 414.191 200.074 411.879 202.097C409.566 203.976 406.82 204.916 403.64 204.916ZM353.341 189.306C361.001 189.306 366.638 186.921 370.252 182.151C374.01 177.237 375.889 171.022 375.889 163.506L375.672 151.364C375.527 149.052 375.455 145.944 375.455 142.042C370.107 135.682 364.326 132.502 358.11 132.502C353.919 132.502 349.944 133.586 346.186 135.754C342.573 137.922 339.61 141.102 337.297 145.294C334.84 150.064 333.611 157.29 333.611 166.975C333.611 173.623 335.562 179.044 339.465 183.235C343.368 187.282 347.993 189.306 353.341 189.306ZM507.742 133.586C507.742 136.621 507.091 138.934 505.791 140.524C504.634 142.114 502.683 142.909 499.937 142.909C497.913 142.909 496.179 142.403 494.733 141.391C493.432 140.379 491.698 138.645 489.53 136.188C487.795 134.309 485.772 132.791 483.459 131.635C481.291 130.479 479.34 129.9 477.605 129.9C468.789 129.9 462.429 131.779 458.526 135.537C456.069 138.139 454.046 141.608 452.456 145.944C450.866 150.136 450.071 154.472 450.071 158.953C450.071 165.457 451.01 170.66 452.889 174.563C454.768 178.465 458.093 181.79 462.863 184.536C464.597 185.548 467.054 186.415 470.234 187.138C473.414 187.716 476.016 188.005 478.039 188.005C480.785 188.005 483.676 187.282 486.711 185.837C489.747 184.247 492.348 182.223 494.516 179.766C497.263 176.586 500.587 174.996 504.49 174.996C506.08 174.996 507.886 175.791 509.91 177.381C512.078 178.971 513.162 180.85 513.162 183.018C513.162 187.355 511.066 191.402 506.875 195.16C502.827 198.773 497.841 201.664 491.915 203.832C485.989 205.855 480.496 206.867 475.437 206.867C466.91 206.867 458.96 204.916 451.589 201.013C444.362 197.111 438.58 191.763 434.244 184.97C429.908 178.032 427.74 170.227 427.74 161.554C427.74 154.038 429.113 146.739 431.859 139.657C434.75 132.574 438.58 126.793 443.35 122.312C447.252 118.699 452.094 116.025 457.876 114.29C463.658 112.556 469.728 111.689 476.088 111.689C480.569 111.689 485.194 112.556 489.964 114.29C494.733 116.025 498.564 118.337 501.454 121.228C505.646 125.42 507.742 129.539 507.742 133.586ZM613.923 206.867C609.009 206.867 605.251 206.145 602.649 204.699C600.048 203.109 597.229 200.218 594.194 196.027C590.436 199.351 584.799 202.025 577.283 204.049C569.911 206.072 563.552 207.084 558.204 207.084C549.387 207.084 542.232 204.699 536.74 199.929C531.392 195.015 528.718 187.86 528.718 178.465C528.718 174.418 529.802 170.733 531.97 167.408C534.283 163.939 537.246 160.904 540.859 158.302C544.906 155.556 549.676 153.388 555.168 151.798C560.805 150.208 565.937 149.413 570.562 149.413C578.367 149.413 585.305 150.136 591.375 151.581V151.364C591.375 143.559 589.424 138.211 585.522 135.321C581.764 132.285 575.693 130.768 567.31 130.768C561.962 130.768 557.337 133.153 553.434 137.922C551.989 139.801 548.953 140.741 544.328 140.741C542.015 140.741 540.281 139.801 539.125 137.922C538.113 135.899 537.607 133.875 537.607 131.852C537.607 127.66 539.341 124.047 542.81 121.011C546.424 117.976 550.76 115.736 555.819 114.29C560.878 112.7 565.575 111.905 569.911 111.905C574.103 111.905 579.09 112.773 584.871 114.507C590.653 116.242 595.35 118.554 598.964 121.445C603.3 125.203 606.624 129.611 608.937 134.67C611.394 139.585 612.623 145.005 612.623 150.931C612.623 152.81 612.478 155.628 612.189 159.386C611.9 163.722 611.755 167.264 611.755 170.01C611.755 171.311 611.611 172.973 611.322 174.996C611.033 177.598 610.888 179.766 610.888 181.501C610.888 183.38 611.466 185.186 612.623 186.921C613.779 188.655 615.369 190.101 617.392 191.257C619.271 192.269 620.5 193.353 621.078 194.509C621.656 195.665 621.945 196.966 621.945 198.412C621.945 199.857 621.006 201.664 619.127 203.832C617.392 205.855 615.658 206.867 613.923 206.867ZM570.562 165.457C564.925 165.457 559.938 166.541 555.602 168.709C551.266 170.877 549.098 174.707 549.098 180.2C549.098 182.946 550.037 185.259 551.916 187.138C553.94 189.017 556.108 189.956 558.421 189.956C564.636 189.956 569.839 189.306 574.031 188.005C578.222 186.704 583.281 184.319 589.207 180.85C589.93 178.538 590.364 175.286 590.508 171.094C590.508 169.504 590.58 168.275 590.725 167.408C582.92 166.107 576.199 165.457 570.562 165.457ZM670.334 197.328C670.334 199.785 669.395 201.953 667.516 203.832C665.637 205.711 663.324 206.65 660.578 206.65C656.242 206.65 653.062 205.855 651.038 204.266C649.015 202.531 648.003 199.423 648.003 194.943C648.003 189.595 647.858 182.585 647.569 173.912C647.28 166.686 647.136 160.615 647.136 155.701C647.136 153.388 647.28 150.353 647.569 146.595C647.858 143.126 648.003 140.524 648.003 138.79C647.569 136.043 646.485 133.803 644.751 132.069C643.016 130.19 640.776 129.25 638.03 129.25C636.729 129.25 635.645 128.672 634.778 127.516C633.91 126.215 633.477 124.914 633.477 123.613C633.477 120.289 634.778 117.759 637.379 116.025C640.126 114.29 643.378 113.423 647.136 113.423C654.941 113.423 660.361 118.048 663.396 127.299C667.154 122.963 671.418 119.494 676.188 116.892C681.102 114.146 685.8 112.773 690.28 112.773C695.628 112.773 700.47 114.218 704.807 117.109C709.287 120 711.528 123.902 711.528 128.816C711.528 131.563 710.299 134.381 707.842 137.272C705.529 140.163 703.144 141.608 700.687 141.608C699.386 141.608 698.23 141.319 697.218 140.741C696.351 140.018 695.267 139.006 693.966 137.706C692.521 136.26 691.292 135.248 690.28 134.67C689.269 133.948 688.112 133.586 686.812 133.586C684.499 133.586 682.331 133.948 680.307 134.67C678.284 135.393 676.911 136.26 676.188 137.272C673.875 140.885 672.141 144.137 670.985 147.028C669.973 149.919 669.467 153.027 669.467 156.351C669.467 158.808 669.395 160.759 669.25 162.205L669.033 174.563C669.033 176.442 669.106 178.538 669.25 180.85C669.395 183.163 669.539 184.897 669.684 186.054C670.117 189.956 670.334 193.714 670.334 197.328ZM814.178 204.916C811.142 204.916 808.252 204.049 805.505 202.314C802.904 200.435 800.591 198.484 798.568 196.46C796.544 194.292 795.171 192.847 794.448 192.124C791.413 196.46 787.004 200.002 781.223 202.748C775.441 205.494 769.877 206.867 764.529 206.867C756.29 206.867 748.991 205.133 742.631 201.664C736.271 198.195 731.357 193.497 727.888 187.571C724.419 181.501 722.685 174.78 722.685 167.408C722.685 160.47 723.48 153.822 725.07 147.462C726.804 140.958 729.117 135.537 732.008 131.201C735.91 125.709 741.113 121.373 747.618 118.193C754.266 115.013 760.843 113.423 767.347 113.423C771.25 113.423 774.935 114.146 778.404 115.591C781.873 117.036 784.909 118.843 787.51 121.011C787.51 111.472 787.438 105.473 787.294 103.016V98.2465C787.294 84.6599 788.161 74.759 789.895 68.5438C791.485 62.4732 795.388 59.4379 801.603 59.4379C804.927 59.4379 807.384 60.1606 808.974 61.606C810.564 63.0513 811.359 65.7976 811.359 69.8446C811.359 71.29 810.998 75.2648 810.275 81.7691C808.685 97.9574 807.89 114.146 807.89 130.334C807.89 143.921 808.107 154.038 808.541 160.687C809.119 167.191 810.203 172.395 811.793 176.297C813.527 180.2 816.201 183.669 819.815 186.704C821.983 188.439 823.5 189.884 824.368 191.04C825.379 192.197 825.885 193.714 825.885 195.593C825.885 197.906 824.729 200.074 822.416 202.097C820.104 203.976 817.358 204.916 814.178 204.916ZM763.878 189.306C771.539 189.306 777.176 186.921 780.789 182.151C784.547 177.237 786.426 171.022 786.426 163.506L786.209 151.364C786.065 149.052 785.993 145.944 785.993 142.042C780.645 135.682 774.863 132.502 768.648 132.502C764.456 132.502 760.482 133.586 756.724 135.754C753.11 137.922 750.147 141.102 747.834 145.294C745.377 150.064 744.149 157.29 744.149 166.975C744.149 173.623 746.1 179.044 750.003 183.235C753.905 187.282 758.53 189.306 763.878 189.306ZM298.86 457.328C298.86 459.785 297.921 461.953 296.042 463.832C294.163 465.711 291.85 466.65 289.104 466.65C284.768 466.65 281.588 465.855 279.564 464.266C277.541 462.531 276.529 459.423 276.529 454.943C276.529 449.595 276.384 442.585 276.095 433.912C275.806 426.686 275.662 420.615 275.662 415.701C275.662 413.388 275.806 410.353 276.095 406.595C276.384 403.126 276.529 400.524 276.529 398.79C276.095 396.043 275.011 393.803 273.277 392.069C271.542 390.19 269.302 389.25 266.556 389.25C265.255 389.25 264.171 388.672 263.304 387.516C262.436 386.215 262.003 384.914 262.003 383.613C262.003 380.289 263.304 377.759 265.905 376.025C268.652 374.29 271.904 373.423 275.662 373.423C283.467 373.423 288.887 378.048 291.922 387.299C295.68 382.963 299.944 379.494 304.714 376.892C309.628 374.146 314.326 372.773 318.806 372.773C324.154 372.773 328.996 374.218 333.333 377.109C337.813 380 340.054 383.902 340.054 388.816C340.054 391.563 338.825 394.381 336.368 397.272C334.055 400.163 331.67 401.608 329.213 401.608C327.912 401.608 326.756 401.319 325.744 400.741C324.877 400.018 323.793 399.006 322.492 397.706C321.047 396.26 319.818 395.248 318.806 394.67C317.795 393.948 316.638 393.586 315.337 393.586C313.025 393.586 310.857 393.948 308.833 394.67C306.81 395.393 305.437 396.26 304.714 397.272C302.401 400.885 300.667 404.137 299.511 407.028C298.499 409.919 297.993 413.027 297.993 416.351C297.993 418.808 297.921 420.759 297.776 422.205L297.559 434.563C297.559 436.442 297.632 438.538 297.776 440.85C297.921 443.163 298.065 444.897 298.21 446.054C298.643 449.956 298.86 453.714 298.86 457.328ZM364.002 326.809C369.061 327.243 373.47 328.616 377.228 330.929C380.986 333.097 382.865 336.421 382.865 340.902C382.865 344.226 381.275 346.9 378.095 348.924C375.06 350.803 371.374 351.742 367.038 351.742C362.846 351.742 359.955 350.658 358.365 348.49C356.775 346.322 355.981 344.082 355.981 341.769C355.981 337.433 356.414 333.819 357.281 330.929C358.293 328.038 360.533 326.665 364.002 326.809ZM381.347 422.855V429.143C381.347 434.78 381.492 440.128 381.781 445.186C382.214 450.101 382.72 455.087 383.298 460.146C383.154 461.592 382.07 463.109 380.046 464.699C378.023 466.145 376.216 466.867 374.626 466.867C371.88 466.867 369.061 466.361 366.17 465.35C363.424 464.193 361.762 462.82 361.184 461.23C360.317 456.605 359.883 452.486 359.883 448.872C359.883 437.02 359.522 423.722 358.799 408.98C358.221 395.971 357.932 386.865 357.932 381.662C357.932 379.06 359.233 376.82 361.834 374.941C364.436 373.062 367.182 372.122 370.073 372.122C374.265 372.122 377.155 373.062 378.745 374.941C380.48 376.82 381.347 379.783 381.347 383.83V422.855ZM458.717 410.28C459.151 409.124 460.668 404.932 463.27 397.706C466.016 390.479 468.546 384.986 470.858 381.228C474.616 375.302 477.941 372.339 480.831 372.339C484.878 372.339 487.986 373.134 490.154 374.724C492.322 376.169 493.406 378.265 493.406 381.011C493.406 382.312 492.828 384.119 491.672 386.432C490.66 388.744 490.082 390.117 489.937 390.551C484.156 403.27 478.952 416.929 474.327 431.528L469.774 448.439C468.04 453.931 465.077 458.412 460.885 461.881C456.693 465.205 451.779 466.867 446.142 466.867C441.083 466.867 436.386 464.555 432.05 459.929C429.448 455.882 426.702 450.751 423.811 444.536C421.065 438.321 418.68 432.25 416.656 426.324L409.068 403.559C407.478 399.079 406.177 395.248 405.165 392.069C404.298 388.889 403.865 385.998 403.865 383.396C403.72 380.361 404.587 377.904 406.466 376.025C408.345 374.146 410.947 373.206 414.271 373.206C418.029 373.206 420.703 374.001 422.293 375.591C423.883 377.036 425.329 379.349 426.629 382.529C427.208 385.853 428.797 392.647 431.399 402.909L432.917 408.98C434.218 413.894 435.88 418.88 437.903 423.939C439.927 428.998 441.95 433.84 443.974 438.465C443.685 437.743 444.697 440.128 447.009 445.62C448.455 441.428 450.117 436.297 451.996 430.227L458.717 410.28ZM519.833 326.809C524.892 327.243 529.3 328.616 533.058 330.929C536.816 333.097 538.695 336.421 538.695 340.902C538.695 344.226 537.105 346.9 533.926 348.924C530.89 350.803 527.205 351.742 522.868 351.742C518.677 351.742 515.786 350.658 514.196 348.49C512.606 346.322 511.811 344.082 511.811 341.769C511.811 337.433 512.245 333.819 513.112 330.929C514.124 328.038 516.364 326.665 519.833 326.809ZM537.178 422.855V429.143C537.178 434.78 537.322 440.128 537.611 445.186C538.045 450.101 538.551 455.087 539.129 460.146C539.129 461.881 538.117 463.471 536.094 464.916C534.07 466.217 532.191 466.867 530.457 466.867C527.71 466.867 524.892 466.361 522.001 465.35C519.255 464.193 517.593 462.82 517.015 461.23C516.147 456.605 515.714 452.486 515.714 448.872C515.714 437.02 515.352 423.722 514.63 408.98C514.052 395.971 513.762 386.865 513.762 381.662C513.762 379.06 515.063 376.82 517.665 374.941C520.267 373.062 523.013 372.122 525.904 372.122C530.095 372.122 532.986 373.062 534.576 374.941C536.31 376.82 537.178 379.783 537.178 383.83V422.855ZM662.679 455.593C662.679 458.773 660.944 461.447 657.476 463.615C654.007 465.783 650.827 466.867 647.936 466.867C642.588 466.867 638.252 466.217 634.928 464.916C631.748 463.471 628.712 460.869 625.822 457.111C622.208 460.435 617.149 462.965 610.645 464.699C604.141 466.289 598.142 467.084 592.65 467.084C583.689 467.084 576.245 464.699 570.319 459.929C564.537 455.015 561.646 447.86 561.646 438.465C561.646 434.418 562.875 430.371 565.332 426.324C567.789 422.133 570.825 418.808 574.438 416.351C578.341 413.749 582.749 412.015 587.663 411.148C592.578 410.136 598.287 409.63 604.791 409.63C607.827 409.63 611.44 410.208 615.632 411.364C619.823 412.521 623.148 413.749 625.605 415.05V411.581C625.605 403.776 623.654 398.428 619.751 395.537C615.993 392.502 609.922 390.984 601.539 390.984C598.937 390.984 596.553 391.418 594.384 392.285C592.361 393.008 589.976 394.092 587.23 395.537C584.628 396.983 582.171 397.706 579.858 397.706C577.835 397.706 575.883 396.911 574.004 395.321C572.125 393.586 571.186 391.779 571.186 389.9C571.186 383.83 574.944 379.421 582.46 376.675C590.121 373.784 597.926 372.339 605.875 372.339C609.922 372.339 614.548 373.206 619.751 374.941C624.954 376.531 629.363 378.771 632.976 381.662C637.312 385.275 640.637 389.611 642.949 394.67C645.407 399.729 646.635 405.222 646.635 411.148C646.635 413.027 646.491 415.845 646.202 419.603C645.912 423.65 645.768 427.119 645.768 430.01L645.551 435.864C645.262 439.044 645.117 441.573 645.117 443.452C645.117 445.186 645.696 446.704 646.852 448.005C648.153 449.161 649.67 449.739 651.405 449.739L657.476 449.523C659.065 449.523 660.294 450.173 661.161 451.474C662.173 452.63 662.679 454.003 662.679 455.593ZM592.65 449.956C598.865 449.956 604.069 449.306 608.26 448.005C612.452 446.704 617.511 444.319 623.437 440.85C624.015 438.393 624.376 435.141 624.521 431.094C616.571 427.336 609.995 425.457 604.791 425.457C599.877 425.457 595.902 425.674 592.867 426.107C589.831 426.396 587.085 427.625 584.628 429.793C582.171 431.961 580.942 435.43 580.942 440.2C580.942 442.946 582.243 445.259 584.845 447.138C587.591 449.017 590.193 449.956 592.65 449.956ZM703.776 340.251C703.776 348.057 703.342 359.475 702.475 374.507C701.608 388.961 701.174 400.018 701.174 407.679C701.174 409.702 701.319 413.894 701.608 420.254C701.463 422.711 700.596 424.59 699.006 425.891C697.416 427.047 695.537 427.625 693.369 427.625C691.056 427.625 688.961 427.047 687.082 425.891C685.203 424.734 684.046 423.217 683.613 421.338C681.878 409.485 681.011 395.321 681.011 378.843L681.228 345.021C681.228 339.673 681.878 335.337 683.179 332.013C684.625 328.544 687.66 326.809 692.285 326.809C696.188 326.809 699.078 328.11 700.957 330.712C702.836 333.169 703.776 336.349 703.776 340.251ZM692.285 438.899C702.114 438.899 707.028 442.585 707.028 449.956C707.028 453.714 705.799 457.183 703.342 460.363C701.03 463.398 698.067 464.916 694.453 464.916C690.117 464.916 686.576 463.615 683.83 461.013C681.083 458.267 679.71 455.087 679.71 451.474C679.71 448.294 680.867 445.403 683.179 442.802C685.636 440.2 688.672 438.899 692.285 438.899Z" fill="white"/>
<path d="M269.36 316.732C272.415 332.613 262.018 347.964 246.137 351.019C230.255 354.074 219.858 369.425 222.913 385.307L233.731 441.544C236.99 458.483 225.9 474.857 208.96 478.116L189.597 481.841C172.657 485.1 156.283 474.009 153.025 457.069L142.575 402.749C139.316 385.809 122.942 374.719 106.003 377.977L104.919 378.186C87.9791 381.445 71.6051 370.354 68.3464 353.414L63.6552 329.028C60.3965 312.089 71.487 295.715 88.4266 292.456L227.728 265.658C244.668 262.399 261.042 273.49 264.3 290.43L269.36 316.732Z" fill="#F6D705"/>
<circle cx="207.723" cy="307.028" r="13.0143" transform="rotate(-115.07 207.723 307.028)" fill="white"/>
<path d="M195.789 303.195C195.68 302.962 195.577 302.728 195.481 302.493C196.639 299.413 198.953 296.764 202.169 295.259C208.701 292.203 216.474 295.022 219.53 301.554C220.309 303.22 220.705 304.966 220.756 306.694C219.419 308.233 217.746 309.524 215.781 310.443C208.259 313.962 199.308 310.717 195.789 303.195Z" fill="black"/>
<circle cx="169.217" cy="313.482" r="13.0143" transform="rotate(-109.02 169.217 313.482)" fill="white"/>
<path d="M157.754 308.411C157.67 308.168 157.592 307.925 157.522 307.681C158.998 304.74 161.577 302.35 164.934 301.192C171.752 298.842 179.185 302.464 181.535 309.282C182.135 311.021 182.344 312.799 182.213 314.523C180.721 315.912 178.922 317.019 176.871 317.726C169.019 320.433 160.46 316.262 157.754 308.411Z" fill="black"/>
<path d="M209.104 327.807L175.964 333.426C175.762 340.202 186.311 354.257 197.373 350.065C208.435 345.873 210.887 333.512 209.104 327.807Z" fill="black" stroke="black" stroke-width="2.60285" stroke-linecap="round"/>
</svg>
