<svg width="208" height="183" viewBox="0 0 208 183" fill="none" xmlns="http://www.w3.org/2000/svg">
<circle cx="62" cy="104.5" r="46" fill="white" fill-opacity="0.2" stroke="white" stroke-width="4" stroke-linecap="round" stroke-dasharray="8 8"/>
<circle cx="145.5" cy="80" r="55.5" fill="white" fill-opacity="0.2" stroke="white" stroke-width="4" stroke-linecap="round" stroke-dasharray="8 8"/>
<circle cx="112.5" cy="130" r="33.5" fill="white" fill-opacity="0.2" stroke="white" stroke-width="4" stroke-linecap="round" stroke-dasharray="8 8"/>
<path d="M158.692 59L167.517 44.0966L150.198 43.9053L158.692 59ZM192.046 7.39702C192.818 7.09536 193.199 6.22536 192.897 5.4538C192.595 4.68225 191.725 4.30132 190.954 4.60298L191.5 6L192.046 7.39702ZM158.841 45.4994L160.335 45.6295C160.701 41.4297 161.399 37.0411 162.586 33.094C163.778 29.1293 165.431 25.7223 167.636 23.379L166.543 22.3511L165.451 21.3232C162.799 24.1418 160.972 28.0437 159.713 32.23C158.449 36.434 157.724 41.0386 157.347 45.3694L158.841 45.4994ZM166.543 22.3511L167.636 23.379C175.272 15.2631 187.099 9.3312 192.046 7.39702L191.5 6L190.954 4.60298C185.806 6.6156 173.518 12.7497 165.451 21.3232L166.543 22.3511Z" fill="white"/>
<path d="M50.3149 97.0469L38.1316 84.7357L54.885 80.3402L50.3149 97.0469ZM5.30157 54.33C4.48042 54.2204 3.90357 53.4659 4.01313 52.6448C4.1227 51.8236 4.87719 51.2468 5.69834 51.3563L5.49996 52.8431L5.30157 54.33ZM46.889 83.9889L45.4698 84.4745C44.0749 80.3978 42.3059 76.2016 40.1672 72.562C38.0184 68.9054 35.5571 65.9152 32.8223 64.1277L33.643 62.8721L34.4637 61.6165C37.7453 63.7615 40.4913 67.1922 42.7536 71.0421C45.026 74.909 46.8717 79.3049 48.3082 83.5033L46.889 83.9889ZM33.643 62.8721L32.8223 64.1277C23.4379 57.9936 10.5529 55.0307 5.30157 54.33L5.49996 52.8431L5.69834 51.3563C11.1689 52.0863 24.5518 55.1377 34.4637 61.6165L33.643 62.8721Z" fill="white"/>
<path d="M112.619 140.498L127.321 149.656L112.039 157.809L112.619 140.498ZM154.769 170.799C155.597 170.79 156.276 171.455 156.284 172.283C156.293 173.112 155.628 173.79 154.8 173.799L154.784 172.299L154.769 170.799ZM118.974 152.41L120.247 151.617C122.149 154.671 124.284 157.702 126.518 160.252C128.767 162.819 131.042 164.812 133.207 165.893L132.537 167.235L131.868 168.577C129.2 167.246 126.622 164.923 124.261 162.229C121.886 159.519 119.656 156.343 117.701 153.203L118.974 152.41ZM132.537 167.235L133.207 165.893C141.236 169.899 150.961 170.837 154.769 170.799L154.784 172.299L154.8 173.799C150.703 173.84 140.462 172.865 131.868 168.577L132.537 167.235Z" fill="white"/>
<g opacity="0.5">
<path d="M93 95.5C90.2 89.1 91.1666 76.1667 92 70.5C96.1667 74.6667 104.8 84.6 106 91C107.2 97.4 106.5 111.333 106 117.5C102.833 112.833 95.8 101.9 93 95.5Z" fill="#F6D705"/>
<path d="M93.8296 71.7193C93.8089 72.2749 93.6671 73.0081 93.5334 73.549C93.4913 73.7222 93.3952 73.6221 93.3615 73.7422C93.296 73.9746 93.3264 74.1948 93.2548 74.4279C93.2306 74.5049 93.0727 74.391 93.0512 74.4724C92.9356 74.9059 92.9407 75.3375 92.8689 75.7861C92.5155 78.0054 92.3502 80.2087 92.2668 82.4748C92.2392 83.2215 92.0989 84.1331 92.1919 84.9026C92.2028 84.9923 92.3483 84.9337 92.361 84.9503C92.5563 85.211 92.2558 85.1328 92.2231 85.3092C92.0945 86.0118 92.1264 86.786 92.237 87.4486C92.2847 87.7296 92.5529 87.4222 92.4131 87.7194C92.4038 87.74 92.2416 87.6819 92.2317 87.7607C92.209 87.9377 92.2689 88.2729 92.2706 88.4091C92.2731 88.6737 92.2791 88.7147 92.3058 88.9647C92.3409 89.3044 92.3152 89.7148 92.4034 90.072C92.4226 90.1475 92.5664 90.023 92.6114 90.1406C92.6558 90.2569 92.6937 90.5833 92.6749 90.6979C92.6558 90.8127 92.5237 90.7875 92.4985 90.8116C92.2843 91.012 92.6854 91.3257 92.7032 91.3714C93.0093 92.2083 92.9971 92.9817 93.2412 93.7663C93.3892 94.2387 93.6081 94.7193 93.8084 95.1463C93.8599 95.2567 93.9103 95.3676 93.9582 95.4783C94.2444 96.1404 94.4341 96.7351 94.7623 97.3604C94.7969 97.4266 94.9266 97.264 94.9692 97.3446C95.4217 98.1992 95.8526 99.0602 96.2043 99.9732C96.2392 100.064 96.0341 100.034 96.0603 100.13C96.225 100.718 96.4027 101.707 97.2042 101.658C97.379 102.025 97.5951 102.462 97.6508 102.849C97.6864 103.098 97.4168 102.992 97.6266 103.201C97.6738 103.249 97.7685 103.097 97.8289 103.174C98.0833 103.498 98.2638 103.908 98.5391 104.215C98.5955 104.277 98.7061 104.186 98.7398 104.193C99.0171 104.256 98.8884 104.709 98.9036 104.783C99.0206 105.342 99.2861 105.644 99.5423 106.077C99.6017 106.178 99.6931 105.961 99.7562 106.055C100.081 106.539 100.381 107.064 100.608 107.594C100.658 107.712 100.459 107.698 100.476 107.759C100.552 108.026 100.844 107.916 100.922 108.169C100.939 108.222 100.805 108.269 100.797 108.285C100.675 108.542 101.035 108.479 101.062 108.509C101.413 108.882 101.284 109.343 101.584 109.728C101.62 109.773 101.7 109.57 101.792 109.704C102.412 110.6 102.989 111.597 103.455 112.58C103.526 112.731 103.351 112.703 103.343 112.72C103.223 113.002 103.571 112.913 103.611 112.952C103.921 113.262 103.904 113.76 104.402 113.781C105.043 114.951 105.856 116.012 106.524 117.144L105.368 117.449C105.438 116.975 105.53 116.478 105.663 116.001C105.669 115.978 105.833 116.031 105.844 115.986C105.977 115.437 105.71 115.527 105.417 115.142C105.343 115.046 105.746 114.783 105.775 114.765C105.885 114.683 106.128 114.791 106.15 114.762C106.323 114.525 105.498 114.514 105.519 114.174C105.521 114.163 105.67 114.217 105.687 114.19C105.74 114.103 105.685 114.012 105.742 113.931C105.875 113.743 106.279 113.698 106.064 113.379C106.036 113.339 105.566 113.367 105.606 113.071C105.622 112.956 105.644 112.414 105.682 112.273C105.72 112.127 105.865 112.236 105.872 112.226C106.093 111.837 106.167 111.992 106.472 111.805C106.776 111.616 106.073 111.638 105.999 111.552C105.926 111.467 106.105 111.182 106.165 111.112C106.226 111.042 106.317 111.138 106.353 111.075C106.585 110.655 106.014 110.868 105.91 110.723C105.662 110.383 106.193 110.147 106.258 109.845C106.275 109.764 106.154 109.825 106.146 109.752C106.116 109.463 106.286 109.295 106.15 108.958C106.128 108.904 105.826 108.627 106.062 108.463C106.096 108.44 106.223 108.514 106.256 108.392C106.307 108.208 106.347 107.878 106.311 107.678C106.284 107.531 106.065 107.691 106.137 107.509C106.169 107.429 106.289 107.585 106.339 107.432C106.39 107.28 106.397 106.889 106.397 106.74C106.397 106.592 106.232 106.668 106.222 106.656C106.161 106.581 106.091 106.294 106.092 106.269C106.107 105 106.401 103.833 106.32 102.595C106.314 102.498 106.143 102.562 106.14 102.547C106.07 102.215 106.523 102.479 106.676 102.247C106.329 102.279 106.393 102.142 106.356 101.908C106.337 101.795 106.203 101.856 106.189 101.846C105.986 101.679 106.249 101.564 106.303 101.534C106.501 101.423 106.267 101.302 106.399 101.226C106.53 101.15 106.725 101.324 106.722 101.098C106.598 101.036 106.274 101.204 106.221 101.033C106.022 100.395 106.26 99.1906 106.273 98.6764C106.286 98.1563 106.258 97.9981 106.293 97.6929C106.355 97.1461 106.122 97.354 105.999 97.0255C105.875 96.6918 106.473 96.8305 106.598 96.7762C106.722 96.7225 106.589 96.6758 106.656 96.613C106.724 96.5504 106.816 96.6752 106.836 96.5341C106.856 96.3919 106.61 96.0264 106.474 95.9815C106.187 95.8922 105.902 96.0791 105.984 95.7068C105.989 95.6854 106.149 95.7446 106.16 95.6631C106.242 95.0189 106.199 94.3427 106.245 93.7006C106.251 93.6094 106.431 93.6732 106.436 93.6199C106.493 93.0682 106.221 93.2906 105.868 93.0401C106.304 93.0596 106.549 92.8606 106.501 92.4538C106.471 92.2122 106.29 92.2782 106.136 92.1365C106.09 92.0941 106.194 91.9034 106.101 91.8856C105.799 91.8264 105.504 92.0353 105.568 91.6093C105.571 91.59 105.737 91.6229 105.736 91.5581C105.733 91.3087 105.621 91.2142 105.508 91.0922C105.432 91.0115 105.355 90.919 105.303 90.7567C105.205 90.4413 105.219 89.8241 105.119 89.4466C105.582 89.2978 105.351 88.9758 104.985 88.9576C104.908 88.7155 104.788 88.4702 104.735 88.2276C104.716 88.1437 104.867 88.1395 104.877 88.1237C105.031 87.8776 104.685 87.9018 104.652 87.8592C104.299 87.3734 104.303 86.8242 103.824 86.4296C103.807 86.4156 103.495 86.5449 103.641 86.2962C103.651 86.2793 103.875 86.3734 103.759 86.1313C103.642 85.8863 103.556 85.3592 103.23 85.1097C103.152 85.0506 102.802 84.9949 102.892 84.7283C102.904 84.6924 103.001 84.6658 103.029 84.6078C103.117 84.421 102.793 84.5431 102.97 84.2777C103.148 84.0135 103.184 83.6576 102.81 83.4395C102.798 83.4318 102.522 83.5011 102.462 83.399C102.366 83.2356 102.266 82.9779 102.154 82.8117C102.101 82.7327 101.995 82.8759 101.983 82.8638C101.554 82.3853 101.421 81.9263 101.079 81.3271C101.017 81.2172 100.622 81.0566 100.626 80.7538C100.629 80.4212 101.459 80.1608 100.934 79.7752C100.721 79.6183 99.6977 79.991 99.8613 79.3108C99.2323 78.7024 98.9574 77.9025 98.2622 77.3449C98.2311 77.3198 97.9272 77.4074 97.873 77.3343C97.7933 77.2258 97.8509 77.081 97.7963 77C97.5699 76.6581 97.2438 76.447 97.0055 76.1345C96.9151 76.0166 97.0563 75.9656 96.9485 75.8254C96.8404 75.6853 96.6207 75.7127 96.5333 75.4722C96.4674 75.2897 96.639 74.9074 96.5118 74.6926C96.2228 74.9301 96.1193 74.798 95.853 74.6428C95.8018 74.6132 95.7432 74.744 95.7139 74.7344C95.5936 74.6985 95.606 74.5491 95.483 74.5196C95.4531 74.5122 95.3565 74.5956 95.3267 74.5944C95.0699 74.5869 95.0966 74.1841 95.1016 74.1145C95.1162 73.8452 94.9326 73.889 94.8915 73.7311C94.8504 73.5734 95.0646 73.6721 94.9854 73.5159C94.824 73.1957 94.4997 72.8696 94.2619 72.6032C94.1653 72.4961 94.1067 72.684 94.09 72.6713C93.8573 72.4828 93.7898 72.145 93.4276 72.2553C93.9254 71.5034 93.2485 72.1882 93.083 71.759C93.0703 71.7251 93.3408 71.4072 93.4745 71.4593C93.6116 71.5149 93.6437 71.7376 93.8358 71.8033C93.8804 71.8181 94.3319 71.7312 94.3723 71.7401C94.6804 71.8006 94.2514 72.2506 94.2353 72.2833C94.0692 72.6447 94.5813 72.5826 94.6522 72.6173C94.9863 72.7858 95.1301 73.0747 95.3954 73.2285C95.5705 73.3321 95.8864 73.076 95.9803 73.2C96.2859 73.6057 95.9813 74.1177 96.6628 74.1519C96.8092 74.1607 97.0775 73.7916 97.056 74.3008C97.0552 74.3335 96.9914 74.749 97.2467 74.7368C97.2789 74.7353 97.3769 74.6507 97.4022 74.6636C97.5697 74.7515 97.5673 74.9079 97.7297 75.0235C97.8908 75.1375 98.0945 75.2656 98.2017 75.4627C98.2665 75.5813 98.1897 75.8665 98.1836 75.9518C98.1651 76.1962 98.5015 76.1664 98.4121 76.3824C98.3222 76.5994 97.942 76.6307 98.0219 76.9401C98.2893 76.736 98.5726 76.5372 98.8459 76.3373C99.24 76.8402 99.5482 77.4012 99.9548 77.8995C100.005 77.9609 100.098 77.7857 100.156 77.8489C100.4 78.1162 100.49 78.4459 100.757 78.7132C100.964 78.92 101.308 79.061 101.528 79.2781C101.328 79.6559 101.699 79.9418 101.861 80.2298C101.918 80.3303 101.83 80.3837 101.85 80.4695C101.926 80.7916 102.121 80.4779 102.213 80.516C102.609 80.6826 101.997 81.1494 102.253 81.4872C102.266 81.5046 102.76 81.5021 102.803 81.5202C103.078 81.6287 102.708 81.6335 102.767 81.7764C102.876 82.0378 102.899 82.249 103.178 82.4573C103.26 82.5171 103.599 82.5707 103.531 82.8323C103.522 82.8666 103.401 82.9282 103.404 82.9488C103.482 83.3179 103.847 83.0999 104.077 83.1969C104.307 83.294 104.22 83.7166 104.18 83.8155C104.078 84.072 104.034 83.7539 104.01 83.7572C103.736 83.7989 103.893 83.9719 103.963 84.1323C103.618 84.3681 103.761 84.5614 104.037 84.2975C104.067 84.2682 103.965 84.172 103.963 84.1323C104.394 84.0539 104.575 84.258 104.392 84.7094C104.305 84.919 104.06 84.909 104.33 85.2343C104.452 85.3824 104.667 85.1775 104.818 85.2901C105.164 85.5479 105.159 86.1188 105.373 86.4586C105.451 86.5816 105.53 86.3857 105.588 86.4677C105.742 86.6854 105.739 86.9549 105.903 87.1705C105.918 87.1902 106.044 87.0683 106.08 87.1434C106.36 87.7222 106.473 88.2781 106.691 88.9201C106.798 89.2276 107.057 89.7764 107.12 90.1187C107.16 90.3263 107.175 90.5536 107.178 90.7792C107.179 91.1907 107.153 91.6214 107.235 91.9304C107.316 92.2448 107.469 92.1492 107.598 92.269C107.847 92.4992 107.512 93.0133 107.458 93.0748C107.456 93.0763 107.388 92.8172 107.32 92.9669C107.153 93.0675 107.457 93.0718 107.458 93.0748C107.424 93.1151 107.441 93.6658 107.48 93.7613C107.503 93.8166 107.655 93.7707 107.664 93.8C107.868 94.509 107.956 95.2177 107.922 95.948C107.92 95.961 107.744 95.951 107.741 95.9815C107.685 96.4002 107.911 96.6579 108.052 96.9988C108.192 97.335 108.159 97.6134 107.865 97.8273C107.911 98.0825 107.789 98.4581 107.713 98.6751C107.637 98.8897 107.978 98.9115 107.985 98.9303C108.212 99.5126 108.022 99.8546 107.997 100.464C107.984 100.752 108.036 101.325 108.073 101.637C108.102 101.884 108.022 102.032 108.072 102.26C108.079 102.291 108.23 102.261 108.236 102.27C108.416 102.526 108.046 102.401 107.98 102.453C107.738 102.642 107.61 102.757 107.72 103.082C107.745 103.157 108.275 103.382 108.305 103.519C108.342 103.697 108.152 103.627 108.196 103.814C108.199 103.83 108.317 103.828 108.31 103.943C108.28 104.476 108.2 105.055 108.198 105.609C108.198 105.685 108.387 105.592 108.389 105.702C108.399 106.214 108.376 106.778 108.272 107.272C108.246 107.395 108.118 107.313 108.078 107.339C107.838 107.495 108.172 107.739 108.177 107.777C108.309 108.696 107.972 109.383 108.077 110.318C108.084 110.37 108.432 110.775 108.109 110.934C108.088 110.945 107.758 111.103 107.97 111.265C107.984 111.275 108.154 111.177 108.128 111.363C108.102 111.548 108.197 111.853 108.002 112.103C107.94 112.182 107.61 112.356 107.852 112.61C107.869 112.627 108.425 113.038 108.019 113.147C107.952 113.165 107.532 113.119 107.731 113.417C107.77 113.476 107.87 113.38 107.92 113.531C107.997 113.764 107.867 114.046 108.037 114.335C108.067 114.386 108.34 114.61 108.112 114.758C108.077 114.782 107.939 114.724 107.918 114.809C107.816 115.217 107.881 115.645 107.754 116.063C107.709 116.207 107.487 116.117 107.415 116.263C107.344 116.408 107.261 116.725 107.353 116.887C107.445 117.055 107.821 116.901 107.83 117.153C107.837 117.323 107.835 117.489 107.828 117.648L107.296 122.865L104.483 118.53C103.965 117.815 103.605 116.996 103.141 116.243C103.059 116.112 103.022 116.291 102.893 116.1C102.42 115.4 101.521 114.24 101.359 113.475C101.226 112.858 101.77 113.394 101.601 112.965C101.522 112.761 101.041 112.792 101.001 112.755C100.61 112.392 100.581 111.998 100.286 111.638C100.226 111.565 100.131 111.734 100.081 111.671C99.9094 111.455 99.8167 111.164 99.6664 110.951C99.5981 110.855 99.499 110.942 99.4498 110.845C99.331 110.612 99.2539 110.385 99.2248 110.106C99.2221 110.081 99.4423 110.127 99.3459 109.961C99.1894 109.692 99.0878 109.298 98.794 109.059C98.7063 108.988 98.4498 109.141 98.5052 108.837C98.5168 108.774 98.854 108.638 98.4511 108.573C98.3839 108.563 97.7935 108.398 97.9088 108.069C97.9391 107.982 98.1131 107.704 98.0073 107.618C97.992 107.607 97.891 107.75 97.8226 107.667C97.5839 107.375 97.3958 107.029 97.1551 106.725C97.0905 106.644 97.0268 106.861 96.9351 106.737C96.6824 106.397 96.4502 105.923 96.2853 105.54C96.2249 105.399 96.3967 105.42 96.404 105.403C96.5235 105.126 96.1873 105.202 96.1408 105.161C95.857 104.903 95.848 104.581 95.6436 104.309C95.5875 104.234 95.4851 104.37 95.4637 104.36C95.2491 104.262 95.5646 104.246 95.5303 104.124C95.434 103.782 95.2355 103.46 95.046 103.167C94.9764 103.059 94.8893 103.274 94.8286 103.176C94.4682 102.604 94.1401 101.979 93.9094 101.347C93.8668 101.228 94.027 101.23 94.0426 101.192C94.1545 100.931 93.7604 100.842 93.7061 100.803C93.4584 100.622 93.5185 100.472 93.3837 100.267C92.723 99.2701 92.1275 97.9087 91.7002 96.85C91.6055 96.6176 91.5194 96.3947 91.441 96.1821C90.9981 94.9829 90.7928 93.9545 90.49 92.7744C90.4675 92.6842 90.3067 92.8167 90.285 92.739C90.0147 91.7342 89.9238 90.7285 89.7424 89.7279C89.728 89.6459 89.568 89.7871 89.539 89.6558C89.4783 89.3869 89.4482 89.0352 89.4763 88.7565C89.4896 88.6197 89.6584 88.7839 89.6688 88.6469C89.6935 88.3271 89.6757 87.9911 89.6218 87.6728C89.5985 87.5369 89.4352 87.7581 89.419 87.5798C89.3065 86.3677 89.224 85.1763 89.4356 83.9565C89.4502 83.8727 89.8153 83.794 89.7427 83.619C89.6408 83.607 89.5212 83.6093 89.4124 83.6048C89.3319 81.855 89.4987 80.1304 89.605 78.3935C89.6095 78.3206 89.4091 78.437 89.4168 78.2957C89.462 77.4692 89.4594 76.6678 89.7164 75.8425C89.7416 75.7616 90.0787 75.8307 90.0468 75.5798C90.0407 75.535 90.0256 75.1631 89.9599 75.0633C89.9498 75.0496 89.7853 75.1025 89.7907 74.9846C89.8266 74.2836 89.9325 73.5705 90.1053 72.8875C90.1332 72.7797 90.2892 72.9147 90.3106 72.8384C90.4628 72.2792 90.4068 71.6664 90.6323 71.1416C90.7828 70.8013 91.0558 70.9738 91.3687 70.8206C91.4129 70.7982 91.4505 70.5795 91.6185 70.5933C92.0409 70.6254 92.4842 70.7946 92.9363 70.8163C93.0337 70.82 92.9707 70.5285 93.1788 70.726C93.1927 70.739 93.2404 70.9536 93.3119 71.0168C93.3614 71.0601 93.5397 71.0198 93.5992 71.1023C93.6589 71.1835 93.5048 71.2508 93.5714 71.3757C93.6385 71.5047 93.8382 71.4768 93.8296 71.7193ZM107.371 99.6403C107.211 99.8379 107.809 99.8592 107.663 99.649C107.656 99.6389 107.379 99.6301 107.371 99.6403ZM99.1902 77.6799C99.1423 78.0448 99.5563 77.9446 99.604 77.6753C99.651 77.4056 99.2041 77.5687 99.1902 77.6799ZM97.3558 75.7349C97.3885 76.0978 98.0704 75.591 97.7314 75.4534C97.7119 75.4452 97.3538 75.7138 97.3558 75.7349ZM91.334 71.7071C91.3422 71.7049 91.3694 71.5531 91.3624 71.5456C91.1846 71.4379 91.1295 71.7492 91.334 71.7071ZM95.4728 73.8751C95.4481 74.02 95.725 74.1335 95.7553 73.9522C95.7792 73.8058 95.503 73.6942 95.4728 73.8751ZM106.55 109.85C106.541 109.852 106.528 109.965 106.578 109.965C106.741 109.964 106.702 109.805 106.55 109.85ZM92.4062 70.6028C92.8498 71.0987 92.6211 71.8729 92.1801 71.3052C92.1009 71.2035 92.5333 71.3472 92.4642 71.1859C92.3425 70.8963 91.8749 71.0485 91.8338 70.6739C91.8249 70.6036 92.3798 70.5709 92.4077 70.6029C92.4072 70.6029 92.4067 70.6028 92.4062 70.6028ZM106.655 99.7627C106.647 99.7666 106.641 99.923 106.649 99.9267C106.84 100.009 106.851 99.6936 106.655 99.7627ZM105.796 116.43C105.778 116.439 105.736 116.799 105.75 116.81C106.046 117.021 106.133 116.295 105.796 116.43ZM105.129 89.4366C104.893 89.337 104.808 89.1684 104.985 88.9584C105.032 89.1184 105.085 89.2717 105.129 89.4366Z" fill="#F6D705"/>
</g>
<g opacity="0.5">
<path d="M127.5 101.5C142 108.5 139.684 126.248 143.102 130.844C137.209 130.844 124.081 129.925 118.707 126.248C113.333 122.571 99.5068 106.214 95.4998 101.5C101.039 102.56 110.413 93.2507 127.5 101.5Z" fill="#F6D705"/>
<path d="M140.7 130.607C140.284 129.813 140.045 128.804 139.931 128.05C139.896 127.815 140.028 127.905 140.009 127.742C139.971 127.415 139.858 127.157 139.838 126.842C139.832 126.738 140.024 126.827 140.014 126.719C139.962 126.137 139.812 125.61 139.736 125.043C139.365 122.231 138.938 119.555 138.224 116.876C137.991 115.992 137.785 114.894 137.379 114.041C137.331 113.942 137.218 114.057 137.199 114.042C136.907 113.81 137.223 113.8 137.18 113.588C137.005 112.744 136.619 111.88 136.189 111.19C136.005 110.897 135.91 111.34 135.891 110.958C135.889 110.932 136.068 110.933 136.037 110.842C135.968 110.636 135.742 110.297 135.667 110.148C135.523 109.859 135.494 109.815 135.335 109.559C135.118 109.208 134.904 108.753 134.614 108.416C134.552 108.344 134.496 108.54 134.386 108.435C134.276 108.33 134.044 108.004 133.992 107.879C133.939 107.751 134.073 107.717 134.081 107.68C134.149 107.372 133.589 107.23 133.545 107.193C132.737 106.473 132.219 105.692 131.442 105.029C130.854 104.529 130.162 104.092 129.548 103.676C128.836 103.194 128.227 102.744 127.457 102.372C127.375 102.333 127.386 102.549 127.286 102.501C127.213 102.467 127.14 102.432 127.066 102.398C126.05 101.924 125.063 101.467 124.094 100.97C123.987 100.915 124.191 100.815 124.086 100.751C123.445 100.357 122.451 99.6819 121.822 100.248C121.371 100.081 120.801 99.8928 120.413 99.6457C120.163 99.487 120.471 99.3768 120.118 99.37C120.038 99.3687 120.099 99.5457 119.984 99.5323C119.487 99.4737 118.966 99.312 118.479 99.3064C118.376 99.305 118.378 99.4494 118.346 99.4695C118.077 99.6302 117.749 99.232 117.668 99.195C117.065 98.9167 116.555 98.9295 115.964 98.8717C115.821 98.8581 115.973 99.0622 115.836 99.0562C115.132 99.0238 114.412 98.9763 113.731 98.8893C113.581 98.8696 113.72 98.7079 113.648 98.6903C113.319 98.6157 113.25 98.9228 112.941 98.8637C112.876 98.8519 112.909 98.7123 112.896 98.6974C112.702 98.4634 112.553 98.8086 112.507 98.8181C111.898 98.9476 111.502 98.622 110.907 98.7306C110.837 98.7441 111.013 98.9024 110.817 98.9298C109.515 99.1133 108.142 99.3115 106.831 99.4822C106.628 99.509 106.738 99.3468 106.722 99.3339C106.457 99.1366 106.408 99.5001 106.348 99.5285C105.853 99.7485 105.31 99.6032 105.071 100.093C102.887 100.559 100.843 101.609 98.5036 101.78C98.4745 101.782 98.4896 101.607 98.4307 101.612C97.7192 101.662 97.917 101.886 97.474 102.272C97.3617 102.369 96.9465 102.02 96.9167 101.992C96.7928 101.895 96.8987 101.639 96.8587 101.621C96.546 101.477 96.623 102.308 96.1446 102.294C96.1303 102.292 96.1978 102.143 96.16 102.126C96.0449 102.073 95.9208 102.124 95.8072 102.059C95.6517 101.968 95.5826 101.78 95.4652 101.681L95.6402 101.38C95.654 101.473 95.7118 101.552 95.8782 101.605C95.932 101.622 96.2414 101.264 96.4715 101.569C96.5504 101.676 96.998 102.19 97.0866 102.341C97.1831 102.501 96.9862 102.502 96.9897 102.517C97.1655 103.031 96.9814 102.942 96.914 103.318C96.849 103.695 97.3392 103.189 97.4644 103.216C97.5887 103.241 97.7092 103.636 97.7181 103.735C97.7316 103.839 97.5876 103.817 97.6137 103.898C97.7929 104.434 98.0279 103.847 98.2258 103.908C98.7049 104.063 98.498 104.621 98.7119 104.949C98.7689 105.037 98.8037 104.895 98.8724 104.959C99.1362 105.201 99.1488 105.465 99.5324 105.684C99.5983 105.723 100.043 105.762 100.009 106.073C100.004 106.118 99.8494 106.137 99.9271 106.272C100.043 106.473 100.294 106.808 100.484 106.961C100.626 107.077 100.652 106.78 100.75 106.996C100.794 107.092 100.577 107.031 100.667 107.205C100.758 107.379 101.08 107.743 101.202 107.877C101.325 108.013 101.382 107.831 101.4 107.835C101.506 107.861 101.797 108.078 101.818 108.102C102.863 109.275 103.613 110.545 104.695 111.631C104.78 111.717 104.855 111.544 104.869 111.555C105.196 111.816 104.641 111.874 104.718 112.191C104.949 111.929 105.017 112.099 105.236 112.289C105.343 112.381 105.393 112.235 105.411 112.236C105.701 112.254 105.6 112.537 105.584 112.6C105.528 112.835 105.802 112.79 105.765 112.948C105.73 113.105 105.441 113.075 105.629 113.281C105.773 113.256 105.877 112.886 106.057 113.009C106.734 113.469 107.539 114.741 107.951 115.231C108.363 115.722 108.516 115.855 108.737 116.162C109.132 116.712 109.142 116.368 109.505 116.598C109.869 116.829 109.298 117.083 109.245 117.214C109.192 117.344 109.332 117.302 109.331 117.404C109.33 117.505 109.158 117.447 109.257 117.592C109.356 117.737 109.842 117.927 109.981 117.88C110.275 117.782 110.344 117.424 110.581 117.829C110.595 117.852 110.423 117.896 110.48 117.981C110.939 118.645 111.504 119.251 111.979 119.896C112.045 119.986 111.852 120.035 111.889 120.089C112.274 120.645 112.317 120.271 112.801 120.303C112.435 120.545 112.386 120.874 112.741 121.239C112.953 121.456 113.051 121.286 113.281 121.331C113.35 121.343 113.409 121.586 113.501 121.552C113.797 121.439 113.884 121.068 114.16 121.525C114.172 121.546 114.009 121.607 114.058 121.669C114.37 122.067 114.63 121.898 115.048 122.253C115.366 122.523 115.797 123.187 116.137 123.541C115.801 123.891 116.221 124.126 116.578 123.996C116.811 124.224 117.076 124.432 117.274 124.662C117.347 124.745 117.201 124.806 117.202 124.826C117.208 125.144 117.523 124.983 117.582 125.015C118.096 125.311 118.426 125.747 118.889 125.982C119.001 126.039 119.124 126.085 119.261 126.117C119.288 126.123 119.497 125.857 119.525 126.161C119.528 126.182 119.254 126.199 119.524 126.372C119.793 126.547 120.27 126.999 120.752 127.045C120.867 127.056 121.237 126.921 121.355 127.201C121.371 127.239 121.304 127.316 121.323 127.382C121.388 127.594 121.585 127.307 121.634 127.637C121.687 127.969 121.935 128.297 122.454 128.265C122.47 128.265 122.662 128.046 122.799 128.096C123.02 128.178 123.323 128.333 123.557 128.402C123.67 128.436 123.646 128.253 123.667 128.256C124.449 128.392 124.946 128.68 125.757 128.942C125.904 128.99 126.394 128.869 126.644 129.108C126.925 129.371 126.418 130.107 127.214 130.071C127.536 130.056 128.113 129.106 128.555 129.735C129.63 129.793 130.567 130.217 131.657 130.17C131.706 130.168 131.896 129.899 132.007 129.918C132.172 129.946 132.246 130.092 132.364 130.116C132.859 130.219 133.327 130.156 133.808 130.226C133.99 130.252 133.912 130.386 134.128 130.416C134.346 130.446 134.512 130.277 134.798 130.395C135.013 130.484 135.204 130.882 135.499 130.953C135.544 130.581 135.743 130.607 136.117 130.539C136.188 130.526 136.124 130.39 136.158 130.377C136.298 130.321 136.414 130.438 136.546 130.375C136.578 130.36 136.589 130.233 136.616 130.213C136.841 130.042 137.18 130.355 137.236 130.409C137.456 130.615 137.573 130.456 137.75 130.543C137.926 130.629 137.65 130.705 137.858 130.764C138.284 130.885 138.846 130.896 139.287 130.923C139.465 130.933 139.352 130.757 139.377 130.755C139.742 130.729 140.105 130.925 140.319 130.594C140.536 131.48 140.541 130.518 141.054 130.709C141.094 130.724 141.135 131.141 140.976 131.197C140.818 131.253 140.574 131.115 140.357 131.202C140.306 131.223 139.992 131.6 139.948 131.622C139.618 131.792 139.606 131.17 139.589 131.135C139.418 130.76 139.028 131.16 138.935 131.184C138.492 131.293 138.123 131.184 137.751 131.255C137.505 131.3 137.455 131.704 137.268 131.679C136.64 131.593 136.473 131.012 135.838 131.452C135.703 131.546 135.791 132 135.367 131.612C135.341 131.587 135.029 131.238 134.819 131.421C134.792 131.444 134.78 131.573 134.747 131.581C134.525 131.63 134.39 131.513 134.148 131.538C133.908 131.563 133.617 131.607 133.352 131.533C133.191 131.489 133.012 131.225 132.941 131.158C132.743 130.963 132.475 131.212 132.365 130.991C132.255 130.768 132.558 130.489 132.22 130.312C132.165 130.644 132.091 130.983 132.027 131.316C131.241 131.204 130.485 130.986 129.697 130.876C129.599 130.863 129.67 131.057 129.564 131.047C129.116 131.004 128.754 130.812 128.286 130.779C127.926 130.755 127.499 130.868 127.119 130.84C126.97 130.418 126.394 130.431 126.004 130.306C125.866 130.263 125.899 130.165 125.807 130.109C125.463 129.901 125.56 130.273 125.445 130.301C124.953 130.417 125.093 129.659 124.583 129.546C124.557 129.54 124.114 129.846 124.061 129.857C123.723 129.936 124.051 129.706 123.877 129.626C123.564 129.479 123.354 129.315 122.935 129.31C122.813 129.309 122.455 129.462 122.299 129.2C122.279 129.166 122.338 129.043 122.318 129.027C121.947 128.76 121.788 129.153 121.496 129.2C121.207 129.247 120.932 128.822 120.892 128.713C120.78 128.43 121.077 128.687 121.097 128.671C121.316 128.483 121.031 128.418 120.84 128.314C120.974 127.918 120.685 127.821 120.639 128.206C120.635 128.249 120.808 128.28 120.84 128.314C120.509 128.62 120.152 128.523 119.981 128.017C119.899 127.777 120.135 127.665 119.633 127.495C119.409 127.416 119.352 127.712 119.121 127.675C118.766 127.618 118.442 127.324 118.151 127.059C118.023 126.941 117.891 126.825 117.749 126.736C117.586 126.634 117.642 126.872 117.526 126.806C117.242 126.645 117.074 126.361 116.785 126.203C116.759 126.188 116.71 126.361 116.631 126.299C116.01 125.81 115.584 125.29 115.003 124.751C114.715 124.484 114.16 124.084 113.887 123.795C113.415 123.298 112.988 122.537 112.533 122.161C112.242 121.921 112.183 122.095 111.988 122.058C111.611 121.985 111.499 121.313 111.493 121.219C111.493 121.216 111.746 121.421 111.686 121.238C111.743 121.043 111.496 121.221 111.493 121.219C111.487 121.158 111.059 120.662 110.945 120.588C110.885 120.55 110.799 120.686 110.769 120.664C110.068 120.136 109.436 119.525 108.886 118.829C108.878 118.816 109.021 118.714 109 118.684C108.711 118.259 108.328 118.161 107.95 117.939C107.572 117.717 107.376 117.441 107.428 117.054C107.186 116.846 106.977 116.42 106.86 116.172C106.743 115.924 106.467 116.125 106.446 116.113C105.804 115.725 105.669 115.285 105.193 114.71C104.967 114.436 104.461 113.945 104.178 113.682C103.954 113.476 103.894 113.288 103.669 113.111C103.638 113.087 103.551 113.217 103.539 113.212C103.195 113.098 103.572 112.965 103.579 112.873C103.604 112.538 103.604 112.346 103.256 112.123C103.177 112.072 102.598 112.221 102.463 112.116C102.289 111.978 102.487 111.913 102.301 111.772C102.286 111.76 102.2 111.841 102.111 111.732C101.694 111.223 101.281 110.648 100.82 110.136C100.758 110.067 100.695 110.279 100.603 110.181C100.177 109.726 99.7232 109.193 99.3901 108.674C99.3069 108.544 99.4686 108.531 99.4763 108.48C99.5211 108.172 99.0768 108.181 99.0414 108.15C98.1795 107.402 97.8615 106.557 97.0004 105.777C96.9552 105.738 96.3647 105.611 96.4624 105.241C96.4687 105.216 96.5756 104.846 96.2906 104.851C96.2727 104.851 96.2307 105.057 96.0972 104.874C95.953 104.679 95.6332 104.474 95.5684 104.118C95.5447 104.001 95.6305 103.607 95.2501 103.554C95.2319 103.561 94.4744 103.562 94.6807 103.189C94.7106 103.122 95.0647 102.887 94.6557 102.74C94.5792 102.715 94.5877 102.87 94.4266 102.771C94.3485 102.724 94.282 102.658 94.218 102.589L91.1673 98.8767L95.8162 99.8473C95.945 99.8641 96.1104 99.8952 96.2682 99.7739C96.3115 99.7431 96.4762 99.4616 96.6215 99.6726C96.6455 99.7057 96.6069 99.8485 96.6862 99.8607C97.079 99.9172 97.4944 99.7591 97.9591 99.7597C98.128 99.7582 98.0914 99.9996 98.2728 100.021C98.452 100.043 98.8225 100.009 98.9716 99.8599C99.1247 99.7097 98.8306 99.415 99.0924 99.3113C100.224 98.8573 101.492 98.6454 102.753 98.2818C102.941 98.2274 102.747 98.1523 103.024 98.0631C104.028 97.7322 105.8 97.1151 106.791 97.1851C107.568 97.2401 106.688 97.6054 107.262 97.5723C107.537 97.5569 107.751 97.0844 107.816 97.0583C108.43 96.8021 108.927 96.9092 109.499 96.7697C109.619 96.7408 109.476 96.5881 109.579 96.5655C109.936 96.4865 110.315 96.5183 110.656 96.4697C110.809 96.4477 110.768 96.3205 110.912 96.3171C111.262 96.3076 111.555 96.3406 111.895 96.4428C111.926 96.4522 111.733 96.6263 111.984 96.6176C112.397 96.6033 112.885 96.7065 113.353 96.5777C113.49 96.5393 113.503 96.2398 113.795 96.4472C113.857 96.491 113.773 96.8474 114.12 96.5428C114.173 96.491 114.784 96.0893 115.056 96.3743C115.127 96.4488 115.3 96.7518 115.467 96.7165C115.49 96.7107 115.411 96.5447 115.549 96.5381C116.042 96.5188 116.543 96.5823 117.045 96.5914C117.18 96.5938 117.001 96.4049 117.202 96.4142C117.769 96.4409 118.418 96.5837 118.951 96.7346C119.142 96.7897 118.982 96.9 118.994 96.9174C119.17 97.1976 119.364 96.9015 119.443 96.8976C119.927 96.8777 120.267 97.1119 120.691 97.1718C120.809 97.1894 120.764 97.0173 120.79 97.0094C121.064 96.9361 120.817 97.1649 120.962 97.2328C121.363 97.4233 121.86 97.5461 122.279 97.6489C122.436 97.6876 122.313 97.4616 122.454 97.4988C123.305 97.7199 124.145 98.0243 124.916 98.423C125.061 98.4986 124.915 98.593 124.936 98.6348C125.065 98.9228 125.48 98.7589 125.563 98.7611C125.935 98.7677 126.015 98.9347 126.312 99.0345C126.956 99.2517 127.608 99.532 128.288 99.8673C129.163 100.298 129.973 100.8 130.652 101.266C132.236 102.363 133.303 103.418 134.595 104.7C134.676 104.783 134.73 104.569 134.802 104.64C135.73 105.551 136.475 106.607 137.237 107.649C137.3 107.736 137.361 107.509 137.467 107.646C137.685 107.926 137.912 108.306 138.047 108.642C138.112 108.805 137.864 108.683 137.931 108.845C138.088 109.221 138.284 109.596 138.502 109.949C138.594 110.098 138.631 109.779 138.739 109.981C139.474 111.351 140.093 112.753 140.377 114.281C140.396 114.386 140.08 114.592 140.217 114.78C140.319 114.764 140.432 114.725 140.537 114.697C141.294 116.776 141.675 118.919 142.089 121.02C142.106 121.108 142.265 120.915 142.3 121.089C142.502 122.086 142.738 123.041 142.743 124.068C142.744 124.172 142.398 124.188 142.507 124.471C142.527 124.522 142.657 124.945 142.753 125.042C142.767 125.055 142.907 124.943 142.94 125.084C143.129 125.889 143.276 126.735 143.386 127.508C143.405 127.636 143.205 127.549 143.217 127.641C143.299 128.278 143.64 128.889 143.73 129.428C143.799 129.798 143.475 129.806 143.326 130.131C143.305 130.18 143.429 130.388 143.298 130.491C142.97 130.761 142.507 130.902 142.164 131.2C142.088 131.267 142.435 131.567 142.089 131.49C142.064 131.487 141.813 131.254 141.703 131.22C141.625 131.198 141.535 131.38 141.411 131.309C141.283 131.231 141.349 131.058 141.187 130.925C141.027 130.792 140.884 130.953 140.7 130.607ZM106.335 115.057C106.294 114.768 105.825 115.142 106.108 115.241C106.122 115.245 106.337 115.072 106.335 115.057ZM130.556 130.536C130.28 130.229 130.006 130.579 130.198 130.814C130.391 131.05 130.64 130.63 130.556 130.536ZM133.852 130.759C133.506 130.513 133.354 131.349 133.77 131.222C133.794 131.215 133.872 130.773 133.852 130.759ZM142.823 129.268C142.816 129.275 142.879 129.449 142.888 129.449C143.1 129.464 142.977 129.124 142.823 129.268ZM137.121 130.838C137.014 130.716 136.67 130.823 136.803 130.976C136.912 131.099 137.254 130.991 137.121 130.838ZM98.4968 105.147C98.501 105.138 98.4146 105.025 98.3782 105.06C98.261 105.172 98.4249 105.293 98.4968 105.147ZM142.655 131.058C141.837 131.018 141.354 130.305 142.241 130.4C142.403 130.416 141.89 130.618 142.095 130.684C142.466 130.805 142.726 130.367 143.095 130.603C143.165 130.647 142.707 131.062 142.653 131.059C142.654 131.058 142.654 131.058 142.655 131.058ZM106.775 114.472C106.777 114.463 106.653 114.314 106.644 114.316C106.433 114.365 106.683 114.666 106.775 114.472ZM98.9794 101.499C98.9984 101.513 99.437 101.413 99.448 101.393C99.5914 101.034 98.7086 101.234 98.9794 101.499ZM116.134 123.556C116.421 123.56 116.617 123.709 116.577 123.995C116.435 123.85 116.283 123.709 116.134 123.556Z" fill="#F6D705"/>
</g>
<g opacity="0.5">
<path d="M80.337 115.31C87.3373 100.81 105.085 103.126 109.681 99.708C109.681 105.601 108.762 118.729 105.085 124.103C101.408 129.477 87.214 139.993 82.5 144C80.337 139 72.088 132.397 80.337 115.31Z" fill="#F6D705"/>
<path d="M109.512 102.08C108.763 102.482 107.792 102.721 107.065 102.832C106.844 102.866 106.927 102.735 106.773 102.752C106.471 102.787 106.204 102.903 105.914 102.919C105.816 102.924 105.896 102.734 105.794 102.743C105.227 102.794 104.74 102.939 104.193 103.012C101.514 103.362 98.9574 103.756 96.3959 104.39C95.5539 104.596 94.4963 104.766 93.6775 105.132C93.5822 105.175 93.6907 105.293 93.6762 105.311C93.4496 105.591 93.444 105.277 93.2395 105.311C92.4302 105.447 91.5939 105.786 90.9209 106.172C90.6349 106.337 91.0589 106.457 90.6921 106.453C90.6666 106.454 90.6718 106.276 90.5839 106.301C90.384 106.357 90.0517 106.561 89.9061 106.625C89.624 106.748 89.5825 106.773 89.3303 106.914C88.9861 107.105 88.5419 107.282 88.2067 107.542C88.1354 107.597 88.3224 107.667 88.2177 107.768C88.113 107.868 87.7905 108.07 87.6667 108.112C87.5411 108.153 87.5126 108.019 87.4775 108.009C87.1822 107.917 87.0245 108.454 86.9867 108.494C86.2584 109.226 85.4784 109.659 84.7952 110.351C84.283 110.873 83.8179 111.504 83.3829 112.05C82.8712 112.693 82.3964 113.235 81.9922 113.932C81.9492 114.006 82.1625 114.017 82.1108 114.108C81.7975 114.658 81.5185 115.176 81.2187 115.736C80.9802 116.183 80.7402 116.616 80.4924 117.035C80.4355 117.131 80.3422 116.933 80.2763 117.025C79.8613 117.616 79.1514 118.494 79.6722 119.157C79.4746 119.592 79.2659 120.084 78.9877 120.452C78.8119 120.68 78.7246 120.372 78.6922 120.713C78.6851 120.79 78.8655 120.747 78.8438 120.857C78.7549 121.315 78.5534 121.801 78.508 122.27C78.4992 122.365 78.6426 122.378 78.6602 122.41C78.8005 122.676 78.3789 122.943 78.3339 123.022C78.0017 123.59 77.9789 124.034 77.8641 124.611C77.8384 124.742 78.0543 124.622 78.0365 124.749C77.9452 125.392 77.8293 126.079 77.6818 126.717C77.6485 126.86 77.5002 126.711 77.4761 126.779C77.3728 127.08 77.6727 127.171 77.5873 127.451C77.5699 127.51 77.4337 127.468 77.4177 127.478C77.1675 127.645 77.4986 127.819 77.5041 127.864C77.5821 128.434 77.2254 128.801 77.2895 129.356C77.2978 129.421 77.4687 129.269 77.4816 129.452C77.57 130.687 77.695 131.975 77.8529 133.202C77.8785 133.395 77.7174 133.293 77.7045 133.309C77.507 133.566 77.8703 133.605 77.8987 133.661C78.1135 134.103 77.9884 134.643 78.4802 134.823C79.0281 136.842 80.2544 138.559 81.0652 140.549C81.0758 140.574 80.9078 140.621 80.9295 140.671C81.192 141.276 81.3462 141.028 81.8456 141.233C81.9725 141.287 81.8157 141.77 81.8056 141.808C81.7726 141.955 81.5008 141.987 81.5023 142.028C81.5201 142.366 82.2035 141.9 82.4087 142.254C82.4139 142.266 82.2552 142.294 82.2594 142.332C82.2719 142.449 82.3765 142.511 82.3811 142.627C82.3883 142.891 82.0791 143.157 82.4463 143.367C82.4932 143.395 82.8817 143.116 83.0256 143.472C83.0436 143.518 83.086 143.613 83.1336 143.726L82.0529 143.474C82.2278 143.328 82.4965 143.108 82.5971 143.051C82.7485 142.965 82.754 143.156 82.7676 143.153C83.2566 143.007 83.1732 143.184 83.5485 143.257C83.9124 143.339 83.4194 142.836 83.4437 142.715C83.4663 142.596 83.8491 142.497 83.949 142.489C84.0494 142.482 84.0293 142.621 84.107 142.6C84.625 142.453 84.0576 142.192 84.1164 142.002C84.268 141.541 84.8119 141.771 85.1323 141.579C85.2179 141.528 85.082 141.485 85.1422 141.423C85.3756 141.182 85.6405 141.178 85.8532 140.818C85.8864 140.761 85.9339 140.323 86.2375 140.374C86.2808 140.382 86.2969 140.535 86.4299 140.466C86.6339 140.359 86.946 140.147 87.1051 139.965C87.221 139.831 86.932 139.789 87.1449 139.704C87.2398 139.666 87.1758 139.877 87.3477 139.798C87.5147 139.722 87.8694 139.433 88.0058 139.319C88.1412 139.205 87.9647 139.139 87.969 139.121C88.0003 139.017 88.2085 138.751 88.2326 138.732C89.3888 137.784 90.6359 137.135 91.7099 136.149C91.7942 136.071 91.6277 135.987 91.6394 135.973C91.8978 135.672 91.9445 136.219 92.2527 136.164C92.0033 135.92 92.1692 135.866 92.3582 135.663C92.4491 135.565 92.3084 135.507 92.3091 135.489C92.3324 135.207 92.6049 135.324 92.6663 135.343C92.8925 135.414 92.8543 135.143 93.0068 135.19C93.1588 135.235 93.124 135.515 93.3273 135.345C93.3061 135.203 92.9488 135.076 93.0706 134.908C93.5291 134.277 94.7757 133.573 95.2588 133.2C95.739 132.831 95.8749 132.686 96.173 132.491C96.7105 132.14 96.3764 132.108 96.6062 131.767C96.8357 131.424 97.0753 131.998 97.2016 132.058C97.3272 132.117 97.2882 131.978 97.3866 131.985C97.4849 131.993 97.4275 132.157 97.5685 132.07C97.7083 131.984 97.9015 131.516 97.8572 131.378C97.7641 131.085 97.4186 130.994 97.8112 130.789C97.8339 130.777 97.8761 130.947 97.9578 130.896C98.6056 130.487 99.2005 129.965 99.8253 129.536C99.9116 129.477 99.9601 129.667 100.012 129.634C100.557 129.283 100.191 129.223 100.221 128.752C100.46 129.119 100.776 129.187 101.132 128.853C101.343 128.655 101.177 128.553 101.218 128.329C101.23 128.263 101.466 128.215 101.432 128.124C101.318 127.831 100.957 127.731 101.397 127.481C101.417 127.47 101.479 127.631 101.539 127.586C101.919 127.299 101.757 127.033 102.087 126.644C102.349 126.335 102.977 125.94 103.306 125.613C103.659 125.947 103.872 125.538 103.731 125.186C103.93 124.973 104.126 124.703 104.334 124.511C104.405 124.444 104.477 124.58 104.497 124.579C104.8 124.576 104.625 124.264 104.65 124.208C104.702 124.101 104.757 124.005 104.812 123.917C105.093 123.47 105.461 123.101 105.527 122.525C105.53 122.499 105.244 122.318 105.543 122.267C105.563 122.263 105.605 122.53 105.752 122.25C105.895 121.982 106.3 121.504 106.312 121.035C106.317 120.92 106.152 120.583 106.426 120.453C106.463 120.436 106.543 120.499 106.608 120.478C106.815 120.407 106.518 120.225 106.842 120.172C107.165 120.121 107.483 119.859 107.422 119.376C107.42 119.36 107.193 119.181 107.237 119.047C107.309 118.831 107.448 118.547 107.509 118.319C107.537 118.21 107.357 118.236 107.359 118.216C107.463 117.47 107.733 116.989 107.971 116.215C108.015 116.074 107.88 115.61 108.113 115.368C108.368 115.099 109.114 115.579 109.06 114.821C109.037 114.516 108.076 113.969 108.696 113.546C108.732 112.522 109.142 111.631 109.08 110.593C109.078 110.546 108.807 110.367 108.824 110.261C108.85 110.103 108.995 110.032 109.017 109.92C109.114 109.451 109.046 109.001 109.111 108.547C109.136 108.373 109.27 108.448 109.298 108.241C109.326 108.033 109.155 107.88 109.27 107.605C109.358 107.398 109.754 107.218 109.822 106.94C109.45 106.898 109.475 106.702 109.404 106.35C109.39 106.282 109.255 106.343 109.241 106.311C109.184 106.178 109.301 106.072 109.237 105.943C109.222 105.912 109.095 105.901 109.075 105.875C108.903 105.655 109.212 105.342 109.266 105.288C109.47 105.078 109.311 104.961 109.397 104.796C109.482 104.631 109.559 104.89 109.617 104.695C109.736 104.288 109.744 103.76 109.77 103.334C109.779 103.167 109.603 103.273 109.601 103.249C109.573 102.909 109.769 102.554 109.436 102.355C110.321 102.154 109.359 102.137 109.549 101.656C109.564 101.618 109.981 101.58 110.037 101.73C110.094 101.879 109.957 102.109 110.045 102.319C110.065 102.368 110.443 102.664 110.465 102.705C110.637 103.021 110.015 103.035 109.98 103.049C109.605 103.211 110.007 103.577 110.031 103.672C110.143 104.088 110.035 104.448 110.109 104.796C110.156 105.027 110.56 105.076 110.535 105.257C110.454 105.848 109.873 106.018 110.319 106.614C110.413 106.743 110.866 106.66 110.482 107.065C110.458 107.09 110.112 107.381 110.296 107.585C110.32 107.611 110.448 107.621 110.456 107.653C110.507 107.868 110.392 107.993 110.42 108.222C110.447 108.45 110.493 108.731 110.422 108.98C110.38 109.132 110.118 109.304 110.051 109.371C109.859 109.561 110.111 109.814 109.891 109.919C109.67 110.024 109.388 109.735 109.215 110.057C109.548 110.109 109.887 110.179 110.22 110.24C110.118 110.987 109.912 111.707 109.815 112.458C109.803 112.551 109.996 112.483 109.988 112.583C109.952 113.009 109.767 113.355 109.744 113.799C109.727 114.141 109.849 114.547 109.83 114.909C109.412 115.054 109.439 115.599 109.325 115.972C109.285 116.102 109.186 116.072 109.134 116.159C108.936 116.488 109.304 116.394 109.335 116.503C109.466 116.97 108.706 116.841 108.61 117.329C108.605 117.353 108.925 117.771 108.938 117.822C109.029 118.142 108.788 117.833 108.714 118C108.58 118.301 108.426 118.498 108.438 118.9C108.442 119.016 108.613 119.349 108.359 119.504C108.326 119.525 108.201 119.47 108.186 119.49C107.938 119.851 108.341 119.985 108.402 120.265C108.463 120.546 108.064 120.801 107.957 120.847C107.683 120.964 107.92 120.669 107.902 120.655C107.701 120.453 107.655 120.722 107.564 120.911C107.161 120.798 107.086 121.072 107.47 121.105C107.513 121.108 107.532 120.944 107.564 120.911C107.887 121.221 107.823 121.546 107.333 121.737C107.103 121.823 106.973 121.599 106.849 122.086C106.789 122.309 107.088 122.344 107.076 122.562C107.048 123.061 106.528 123.496 106.318 123.936C106.242 124.095 106.465 124.027 106.417 124.14C106.314 124.374 106.139 124.537 106.001 124.73C105.959 124.789 105.92 124.853 105.886 124.925C105.874 124.953 106.05 124.989 105.993 125.073C105.546 125.724 105.051 126.149 104.534 126.727C104.285 127.006 103.905 127.546 103.619 127.815C103.143 128.265 102.399 128.663 102.035 129.093C101.801 129.369 101.971 129.434 101.936 129.623C101.863 129.992 101.21 130.069 101.116 130.073C101.114 130.073 101.314 129.833 101.135 129.884C100.945 129.82 101.118 130.07 101.116 130.073C101.057 130.075 100.568 130.475 100.501 130.578C100.463 130.636 100.596 130.726 100.574 130.754C100.05 131.42 99.4508 132.006 98.7699 132.503C98.7566 132.51 98.6587 132.364 98.6289 132.383C98.2069 132.647 98.1161 133.008 97.8915 133.368C97.6667 133.728 97.399 133.9 97.023 133.825C96.8158 134.051 96.3991 134.229 96.1563 134.327C95.9135 134.426 96.1049 134.709 96.0924 134.728C95.7041 135.333 95.2749 135.437 94.7076 135.865C94.4378 136.069 93.9511 136.531 93.6915 136.791C93.4868 136.997 93.3024 137.044 93.1272 137.252C93.1036 137.28 93.2273 137.375 93.2224 137.386C93.1058 137.714 92.9835 137.337 92.8942 137.324C92.5698 137.278 92.3846 137.263 92.1598 137.59C92.1077 137.666 92.2434 138.241 92.1388 138.365C92.0022 138.526 91.9431 138.329 91.8037 138.5C91.7915 138.515 91.869 138.604 91.761 138.684C91.2587 139.059 90.6865 139.43 90.1908 139.841C90.1232 139.896 90.3275 139.972 90.2317 140.055C89.7734 140.449 89.2589 140.851 88.7491 141.145C88.6243 141.216 88.6123 141.058 88.564 141.047C88.2731 140.978 88.2664 141.42 88.2368 141.452C87.5091 142.241 86.6759 142.509 85.9245 143.301C85.8861 143.343 85.7622 143.913 85.4073 143.796C85.3831 143.789 85.0278 143.663 85.0325 143.942C85.0326 143.959 85.2358 144.008 85.0523 144.135C84.8651 144.265 84.6857 144.554 84.3299 144.612C84.2165 144.631 83.8589 144.511 83.7971 144.895C83.7947 144.914 83.8144 145.288 83.7023 145.414L81.6942 147.012L80.7962 144.737C80.7648 144.688 80.7743 144.626 80.8625 144.545C80.9125 144.499 81.3104 144.345 80.9826 144.166C80.9202 144.135 80.881 144.267 80.763 144.162C80.581 144.002 80.5319 143.674 80.2183 143.506C80.1613 143.473 79.808 143.434 79.9007 143.166C79.9153 143.123 80.0645 143.098 80.028 143.007C79.858 142.575 79.5158 142.203 79.3404 141.733C79.2791 141.568 79.5194 141.524 79.4763 141.338C79.4318 141.149 79.2921 140.808 79.1033 140.696C78.9141 140.583 78.7126 140.953 78.5368 140.716C77.7786 139.692 77.3391 138.443 76.8415 137.225C76.768 137.044 76.7128 137.245 76.5978 136.981C76.1576 136.013 75.4731 134.243 75.5614 133.265C75.6234 132.488 75.9796 133.371 75.9533 132.799C75.9422 132.527 75.4783 132.318 75.4539 132.252C75.2139 131.623 75.3478 131.164 75.2399 130.587C75.2183 130.47 75.0573 130.6 75.0409 130.499C74.9838 130.157 75.0398 129.769 75.0165 129.444C75.0057 129.296 74.8758 129.326 74.8831 129.188C74.8999 128.859 74.9563 128.55 75.0862 128.243C75.098 128.215 75.2557 128.412 75.2677 128.174C75.2871 127.788 75.434 127.303 75.3467 126.859C75.3207 126.725 75.0228 126.692 75.2565 126.424C75.3059 126.368 75.6528 126.483 75.3821 126.115C75.3355 126.059 74.9894 125.454 75.2989 125.216C75.3796 125.154 75.6979 125.013 75.6781 124.851C75.6743 124.829 75.5023 124.886 75.5079 124.756C75.5304 124.303 75.6422 123.814 75.6937 123.344C75.7071 123.219 75.5048 123.366 75.5305 123.18C75.6002 122.669 75.8063 122.026 75.9897 121.566C76.0587 121.392 76.1563 121.553 76.1744 121.544C76.4671 121.402 76.1881 121.187 76.1906 121.111C76.213 120.63 76.4568 120.37 76.5483 119.962C76.574 119.851 76.3999 119.878 76.3939 119.852C76.3399 119.583 76.5502 119.841 76.6276 119.708C76.849 119.328 76.9868 118.906 77.1165 118.504C77.1638 118.356 76.9325 118.455 76.9774 118.323C77.2493 117.517 77.5762 116.774 77.9992 116.065C78.0761 115.939 78.1665 116.08 78.2081 116.065C78.4967 115.965 78.3478 115.557 78.352 115.479C78.3691 115.125 78.5364 115.06 78.6423 114.783C78.6731 114.703 78.7054 114.621 78.7391 114.539C79.2815 113.198 80.2354 111.779 81.0731 110.754C82.2347 109.329 83.3161 108.397 84.6099 107.253C84.6932 107.18 84.4883 107.109 84.5591 107.045C85.4786 106.221 86.52 105.579 87.5413 104.905C87.626 104.85 87.4101 104.773 87.544 104.679C87.8184 104.485 88.19 104.287 88.5131 104.177C88.6705 104.124 88.5484 104.361 88.7046 104.305C89.0686 104.175 89.4342 104.005 89.773 103.811C89.9177 103.729 89.6132 103.674 89.8082 103.579C91.1303 102.934 92.4734 102.386 93.9318 102.161C94.0319 102.146 94.2254 102.468 94.4039 102.339C94.3888 102.237 94.3525 102.123 94.3268 102.017C96.3167 101.337 98.3365 101.007 100.344 100.622C100.429 100.605 100.244 100.444 100.408 100.412C101.35 100.225 102.255 99.9992 103.235 100.003C103.332 100.003 103.352 100.347 103.616 100.242C103.66 100.223 104.066 100.095 104.159 99.9997C104.171 99.9857 104.064 99.8451 104.196 99.8131C104.95 99.6317 105.754 99.4893 106.487 99.3839C106.607 99.3667 106.531 99.5649 106.617 99.5538C107.22 99.476 107.788 99.1437 108.303 99.0617C108.653 99.0003 108.669 99.3212 108.988 99.4727C109.036 99.4936 109.232 99.3761 109.336 99.507C109.605 99.8356 109.752 100.294 110.048 100.638C110.115 100.714 110.397 100.38 110.331 100.718C110.328 100.742 110.109 100.985 110.08 101.093C110.06 101.17 110.238 101.261 110.173 101.383C110.103 101.507 109.929 101.442 109.807 101.6C109.683 101.757 109.846 101.898 109.512 102.08ZM95.0643 134.77C94.7827 134.792 95.1383 135.274 95.239 135.005C95.2435 134.991 95.0786 134.769 95.0643 134.77ZM109.462 111.641C109.159 111.903 109.512 112.164 109.745 111.981C109.977 111.796 109.554 111.56 109.462 111.641ZM109.643 108.505C109.4 108.835 110.238 108.979 110.107 108.583C110.099 108.56 109.657 108.486 109.643 108.505ZM108.174 99.9594C108.181 99.9659 108.344 99.9057 108.344 99.8967C108.352 99.6873 108.034 99.8046 108.174 99.9594ZM109.696 105.397C109.574 105.497 109.684 105.822 109.836 105.696C109.958 105.594 109.848 105.271 109.696 105.397ZM85.3226 141.801C85.314 141.796 85.2031 141.875 85.2368 141.913C85.3453 142.034 85.4643 141.88 85.3226 141.801ZM109.895 100.133C109.856 100.909 109.144 101.373 109.238 100.526C109.254 100.374 109.456 100.859 109.522 100.665C109.643 100.314 109.205 100.064 109.441 99.7144C109.484 99.6483 109.899 100.083 109.896 100.134C109.896 100.134 109.896 100.133 109.895 100.133ZM94.5034 134.302C94.4948 134.299 94.348 134.411 94.3496 134.42C94.3938 134.63 94.6898 134.404 94.5034 134.302ZM80.6676 140.214C80.677 140.198 80.4703 139.827 80.4496 139.822C80.0681 139.792 80.4874 140.546 80.6676 140.214ZM103.32 125.617C103.304 125.348 103.447 125.15 103.73 125.186C103.594 125.327 103.456 125.482 103.32 125.617Z" fill="#F6D705"/>
</g>
</svg>
