<svg width="160" height="160" viewBox="0 0 160 160" fill="none" xmlns="http://www.w3.org/2000/svg">
<g clip-path="url(#clip0_44_2568)">
<rect width="160" height="160" rx="25.098" fill="#F6D705" fill-opacity="0.24"/>
<path d="M124.321 15.8457V23.3883" stroke="#F6D705" stroke-width="1.2549" stroke-linecap="round"/>
<path d="M135.094 27.6196C135.085 27.6196 135.077 27.6196 135.69 26.8054C136.303 25.9913 137.538 24.363 138.198 23.4728C138.859 22.5827 138.909 22.48 138.961 22.3145" stroke="#F6D705" stroke-width="1.2549" stroke-linecap="round"/>
<path d="M138.675 35.1133H146.92" stroke="#F6D705" stroke-width="1.2549" stroke-linecap="round"/>
<path d="M154.792 171.031C143.372 178.485 128.071 175.27 120.617 163.849C113.164 152.429 97.8633 149.213 86.443 156.667L82.336 159.348C70.1542 167.298 53.8336 163.868 45.8829 151.687L34.4863 134.225C26.5356 122.043 29.9656 105.723 42.1473 97.7719L46.2539 95.0916C57.6745 87.6378 60.8901 72.337 53.4362 60.9165C45.9824 49.496 49.198 34.1952 60.6186 26.7414L79.5338 14.396C91.7155 6.44531 108.036 9.87528 115.987 22.0571L181.369 122.233C189.319 134.414 185.889 150.735 173.707 158.686L154.792 171.031Z" fill="#F6D705"/>
<path d="M113.407 83.3396L88.0143 70.7433C84.5171 75.2657 84.746 90.0831 94.3701 92.7076C103.994 95.3321 111.795 88.1153 113.407 83.3396Z" fill="black" stroke="black" stroke-width="2.19494" stroke-linecap="round"/>
<path d="M84.459 51.8594L97.7509 64.5784" stroke="black" stroke-width="4.38988" stroke-linecap="round"/>
<path d="M131.65 75.2695L113.481 72.382" stroke="black" stroke-width="4.38988" stroke-linecap="round"/>
</g>
<defs>
<clipPath id="clip0_44_2568">
<rect width="160" height="160" rx="25.098" fill="white"/>
</clipPath>
</defs>
</svg>
