<svg width="56" height="56" viewBox="0 0 56 56" fill="none" xmlns="http://www.w3.org/2000/svg">
<g clip-path="url(#clip0_47_3108)">
<rect width="56" height="56" rx="28" fill="white"/>
<path d="M30.4664 0.488577L56 20.8505L23.6702 61.3917L-1.86338 41.0298L4.37976 16.5092L30.4664 0.488577Z" fill="#FFDFDF"/>
<circle cx="3.79562" cy="3.79562" r="3.79562" transform="matrix(0.567684 -0.823247 -0.823247 -0.567684 37.1331 30.0708)" fill="white"/>
<path d="M39.3823 26.8471C40.4736 25.1279 40.0193 22.8392 38.3285 21.6733C37.0359 20.7819 35.3869 20.8 34.1371 21.5861C33.7455 23.2871 34.3965 25.1303 35.9208 26.1815C36.9721 26.9063 38.228 27.1092 39.3823 26.8471Z" fill="black"/>
<circle cx="3.79562" cy="3.79562" r="3.79562" transform="matrix(0.697334 -0.716746 -0.716746 -0.697334 25.9924 30.1636)" fill="white"/>
<path d="M28.7689 27.3452C30.1323 25.8326 30.067 23.5002 28.5949 22.068C27.4695 20.9732 25.8408 20.7151 24.4771 21.2813C23.8066 22.8928 24.1404 24.819 25.4674 26.1102C26.3827 27.0006 27.5871 27.4106 28.7689 27.3452Z" fill="black"/>
</g>
<defs>
<clipPath id="clip0_47_3108">
<rect width="56" height="56" rx="28" fill="white"/>
</clipPath>
</defs>
</svg>
