<svg width="56" height="56" viewBox="0 0 56 56" fill="none" xmlns="http://www.w3.org/2000/svg">
<rect width="56" height="56" rx="28" fill="white"/>
<path d="M32 8L52.7846 44H11.2154L32 8Z" fill="#9AE17B"/>
<circle cx="2.96296" cy="2.96296" r="2.96296" transform="matrix(-1 0 0 1 38.8147 26.3896)" fill="white"/>
<path d="M35.7471 26.3726C34.1584 26.4328 32.8888 27.7389 32.8887 29.3423C32.8887 30.5682 33.6311 31.62 34.6904 32.0747C35.9568 31.5724 36.8525 30.3373 36.8525 28.8921C36.8525 27.8954 36.4268 26.9982 35.7471 26.3726Z" fill="black"/>
<circle cx="2.96296" cy="2.96296" r="2.96296" transform="matrix(-1 0 0 1 30.8347 26.3901)" fill="white"/>
<path d="M27.7471 26.3706C26.1583 26.4308 24.8888 27.7368 24.8887 29.3403C24.8887 30.5662 25.631 31.618 26.6904 32.0728C27.9568 31.5705 28.8525 30.3353 28.8525 28.8901C28.8525 27.8935 28.4268 26.9962 27.7471 26.3706Z" fill="black"/>
</svg>
